<?xml version="1.0" encoding="utf-8"?>
<!-- Generator: Adobe Illustrator 25.0.0, SVG Export Plug-In . SVG Version: 6.00 Build 0)  -->
<svg version="1.0" id="Layer_1" xmlns="http://www.w3.org/2000/svg" xmlns:xlink="http://www.w3.org/1999/xlink" x="0px" y="0px"
	 viewBox="0 0 713 360" style="enable-background:new 0 0 713 360;" xml:space="preserve">
<style type="text/css">
	.st0{fill:url(#SVGID_1_);}
	.st1{fill:url(#SVGID_2_);}
	.st2{fill:#50505C;stroke:#000000;stroke-width:5;stroke-miterlimit:10;}
	.st3{fill:url(#SVGID_3_);stroke:#000000;stroke-width:7;stroke-linecap:round;stroke-linejoin:round;stroke-miterlimit:10;}
	.st4{fill:url(#SVGID_4_);stroke:#000000;stroke-width:7;stroke-linecap:round;stroke-linejoin:round;stroke-miterlimit:10;}
	.st5{fill:url(#SVGID_5_);stroke:#000000;stroke-width:7;stroke-linecap:round;stroke-linejoin:round;stroke-miterlimit:10;}
	.st6{fill:url(#SVGID_6_);stroke:#000000;stroke-width:7;stroke-linecap:round;stroke-linejoin:round;stroke-miterlimit:10;}
	.st7{fill:url(#SVGID_7_);stroke:#000000;stroke-width:7;stroke-linecap:round;stroke-linejoin:round;stroke-miterlimit:10;}
</style>
<g id="Layer_6">
	<g>
		
			<radialGradient id="SVGID_1_" cx="199.35" cy="188.75" r="132.7995" gradientTransform="matrix(1 0 0 -1 0 360)" gradientUnits="userSpaceOnUse">
			<stop  offset="0" style="stop-color:#E5E2DF"/>
			<stop  offset="0" style="stop-color:#F1EFEE"/>
			<stop  offset="0" style="stop-color:#FFFFFF"/>
			<stop  offset="0.1259" style="stop-color:#F0F0F1"/>
			<stop  offset="0.3664" style="stop-color:#C9CACB"/>
			<stop  offset="0.5225" style="stop-color:#ADAEB0"/>
			<stop  offset="0.6029" style="stop-color:#A3A5A7"/>
			<stop  offset="0.7382" style="stop-color:#898D90"/>
			<stop  offset="0.9108" style="stop-color:#5F6769"/>
			<stop  offset="1" style="stop-color:#465053"/>
		</radialGradient>
		<polygon class="st0" points="73,32.3 137.1,148.7 299.5,234.4 325.7,310.2 308.5,205.6 		"/>
		<path d="M75.8,34.4l2.4,3.9c5.8,9.2,11.5,18.2,17.3,27.1c5.7,8.9,11.3,17.6,16.7,26.3c5.4,8.7,10.6,17.4,15.6,26.4
			c5.1,8.9,10,18.1,15,27.3l-2.7-2.7l161.5,87.3l1.7,0.9l0.6,1.8l25.4,76.1l-7.7,2l-16.1-104.8l1.2,1.9
			c-38.6-29-77.1-58.1-115.9-87.5C152.9,91.7,114.5,63,75.8,34.4z M69.3,29.6l3.7,2.7c38.9,28.5,78,56.8,117.7,85.2
			c39.6,28.4,79.6,57,119.6,85.8l0.9,0.7l0.2,1.2l18.3,104.4l-7.7,2l-27-75.5l2.3,2.7L134,154.6l-1.7-0.9l-1-1.8
			c-5.7-10.1-11.4-20.4-17-30.9c-5.6-10.5-11.1-21.1-16.4-31.8c-5.3-10.7-10.3-21.4-15.3-31.9C78.1,48,73.7,38.7,69.3,29.6z"/>
	</g>
	<g>
		
			<radialGradient id="SVGID_2_" cx="518.1" cy="188.75" r="132.7757" gradientTransform="matrix(1 0 0 -1 0 360)" gradientUnits="userSpaceOnUse">
			<stop  offset="0" style="stop-color:#E5E2DF"/>
			<stop  offset="0" style="stop-color:#F1EFEE"/>
			<stop  offset="0" style="stop-color:#FFFFFF"/>
			<stop  offset="0.1259" style="stop-color:#F0F0F1"/>
			<stop  offset="0.3664" style="stop-color:#C9CACB"/>
			<stop  offset="0.5225" style="stop-color:#ADAEB0"/>
			<stop  offset="0.6029" style="stop-color:#A3A5A7"/>
			<stop  offset="0.7382" style="stop-color:#898D90"/>
			<stop  offset="0.9108" style="stop-color:#5F6769"/>
			<stop  offset="1" style="stop-color:#465053"/>
		</radialGradient>
		<polygon class="st1" points="644.4,32.3 580.4,148.7 417.9,234.4 391.8,310.2 408.9,205.6 		"/>
		<path d="M648.1,29.6c-4.4,9.1-8.8,18.4-13.2,27.8c-5,10.5-10,21.2-15.3,31.9c-5.3,10.7-10.8,21.4-16.4,31.8
			c-5.6,10.5-11.3,20.7-17,30.9l-1,1.8l-1.7,0.9l-163.4,84.1l2.3-2.7l-26.9,75.5l-7.7-2L406,205.1l0.2-1.2l0.9-0.7
			c39.9-28.8,79.9-57.4,119.6-85.8c39.6-28.4,78.8-56.6,117.7-85.2L648.1,29.6z M641.6,34.4c-38.6,28.5-77.1,57.3-115,86
			c-38.9,29.4-77.4,58.6-115.9,87.5l1.2-1.9l-16,104.8l-7.7-2l25.3-76.1l0.6-1.8l1.7-0.9l161.6-87.3l-2.7,2.7
			c5-9.3,9.9-18.4,15-27.3c5.1-8.9,10.2-17.7,15.6-26.4c5.4-8.7,11-17.4,16.7-26.3c5.7-8.9,11.5-17.9,17.2-27.1L641.6,34.4z"/>
	</g>
</g>
<g id="Layer_13">
	<g>
		<path class="st2" d="M278.9,292.7c-6.6-0.2-13.4,0.2-20,0s-14.9-1.5-12,8c4,0,8,0,12,0c0,8.3,0,16.7,0,25c2.3,1,4.5-0.4,7,1
			c1-8.5,1.2-17.2,1-26C273.5,301.3,281.8,302,278.9,292.7z"/>
	</g>
	<g>
		<path class="st2" d="M402.9,305.7c-0.2-1.7,0.3-8.9,0-10c1-4.5-4.4-2.6-7-3c0,11,0,22,0,33c8.5,1,17.2,1.2,26,1
			c-0.6-2.9,1.6-5.1,1-8c-5.3-0.3-11.8,0.4-17,0C400.7,318.3,402.9,309.4,402.9,305.7z"/>
	</g>
	<g>
		<path class="st2" d="M469.9,300.7c4.3-12.5-12.8-7.2-21-8s-14.4,10.9-8.2,17.2c6.2,6.3,22.7-2.7,22.2,8.8c-7.3,0-14.7,0-22,0
			c-1.9,11.2,14.9,8.2,23,8s11-14.2,4.3-18.2s-22.2,2.6-22.2-7.8C453.9,300.7,461.9,300.7,469.9,300.7z"/>
	</g>
	<path class="st2" d="M320.9,292.7c-6.5-2.2-24.4-1.1-26,7s-1.5,23.5,6.3,26.7s23.2,0.5,25.3-7C328.7,311.9,328.7,295.4,320.9,292.7
		z M319.1,318c-3.5,3.5-12.9-1-17.2,0.8c1.8-4.3-2.7-13.7,0.8-17.2s12.8,1,17.2-0.8C318.1,305.1,322.6,314.5,319.1,318z"/>
	<path class="st2" d="M377.9,301.7c-3.5-11.5-22.8-11.5-30.3-6.3s-7,27.7,2.6,31s28,1.7,28.7-11.7
		C378.7,311.6,378.5,305.5,377.9,301.7z M370.9,312.7c-0.6,11.5-12.2,3.7-20,6c1.3-8.4-4.2-17.8,7-18
		C369.1,300.6,371.5,301.3,370.9,312.7z"/>
	<g>
		<path class="st2" d="M65.9,307.7c12.3,0,25.5-0.1,37,1c2,0,4,0,6,0c5.7-0.5,12.4-0.5,18,0c3.7,0,7.3,0,11,0c4.4-0.4,9.7-0.4,14,0
			c20.3-0.5,41.1,1.2,61-1c-7-1.8-16.2-1-24-1c-6.4,0-13.4-0.5-19-1c-46.7,0.3-94.3-1.1-140,2C41.9,307.7,53.9,307.7,65.9,307.7z"/>
	</g>
	<g>
		<path class="st2" d="M642.9,308.7c2.4-0.2,5.9-1,9-1c9.2-1.3,22.2,2.6,29-2c-56.7,1.9-116.7-2.9-173,2
			C551.9,309.6,598,308.7,642.9,308.7z"/>
	</g>
</g>
<g id="Layer_2_copy">
	
		<linearGradient id="SVGID_3_" gradientUnits="userSpaceOnUse" x1="254" y1="202.5784" x2="254" y2="84.9846" gradientTransform="matrix(1 0 0 -1 0 360)">
		<stop  offset="0" style="stop-color:#BCBCD1"/>
		<stop  offset="1" style="stop-color:#50505C"/>
	</linearGradient>
	<path class="st3" d="M251.8,198.4c-3.6-6.1-4.2-7.4-7.7-14.2c-1.9-3.7-2.4-6.2-4.2-9.8c-1.7,3.1-2.5,4.1-4.4,7.6
		c-2.1,3.9-7.8,16.7-12.8,27.7c-2.6,5.6-8.2,18-19,44.9c-1.2,3.1-2.5,6-4,9c-1.3,4.5-10,7.3-12.7,11c10.9-2,22.7-0.5,34-1
		c3.9-12.7,12.9-30.6,17.4-43.1c6.7,2.1,2.5,10.5,3.3,16.2c10.4,0.9,21.2-0.5,32.8-0.1c3.7,10.4,9.5,28.2,14.1,28.2
		c4.4,0,15.7-0.5,19.4-0.2c4.3,0,8.7,0,13,0c-3-1.6-4.2-5.4-6-8c-10.6-15.8-16.2-34.9-25-52c-3.4-6.6-6.8-12.9-11-19
		c-1.1-1.5-2-3.4-3-5c-3.9-6.5-6.9-12.3-11.4-18.4s-14.1-17.5-15.2-14.5c-1.1,2-3.2,6.5-5.1,9.2c-2.3,3.2-3.3,5.6-3.3,5.6
		s2.1,5.6,3,7c4.8,8.2,5.4,9.8,9.4,17.7c4.9,9.7,15.4,31.5,14.4,31.5c-7.4,0-15.9,0.4-19.9,0.4c-4.5-0.1-8.6,0.4-9,0
		c0,0,2.6-8.5,6.5-17.3C247.3,207.4,249.6,203,251.8,198.4z"/>
	
		<linearGradient id="SVGID_4_" gradientUnits="userSpaceOnUse" x1="366.649" y1="202.6666" x2="366.649" y2="84.9781" gradientTransform="matrix(1 0 0 -1 0 360)">
		<stop  offset="0" style="stop-color:#BCBCD1"/>
		<stop  offset="1" style="stop-color:#50505C"/>
	</linearGradient>
	<path class="st4" d="M314.9,197.7c0.1,10.1-0.4,28.9-0.4,29.5c0,13.8,0.6,22.1,5.4,32.5c8.3,14.5,25.3,15.8,41,15s36.4,3,50-6
		c2.8-2.7,2.8-16.9,2-22c-3.7,0.2-10.7,0.2-19,1c-5.7,0.2-21.7-0.3-33,0c-12.3,0.3-20.4-4.3-20-15s-0.1-22.2-0.6-31.1
		c-0.5-8.9-0.7-20,3.4-21.2c11.1-0.2,24.1-0.1,34.2,0.2c8.5,0.3,22.7-0.6,31.4,1c2-4.7,3.6-9.1,5.4-13.5s2.2-6.2,4.2-10.5
		c0.3,0.7-2.5,0.9-2,1c-7.7-2-16.8-1.4-25-1s-17.3-0.2-25,0s-19,0.6-26.6,0.6c-12.2-0.5-20.3-1.9-22.7,0.1
		c-2.6,2.1-3.6,7.5-3.1,16.3C314.7,184.5,314.3,191.4,314.9,197.7z"/>
	
		<linearGradient id="SVGID_5_" gradientUnits="userSpaceOnUse" x1="480.85" y1="203.6" x2="480.85" y2="84.9556" gradientTransform="matrix(1 0 0 -1 0 360)">
		<stop  offset="0" style="stop-color:#BCBCD1"/>
		<stop  offset="1" style="stop-color:#50505C"/>
	</linearGradient>
	<path class="st5" d="M502.2,228.4c0.5-0.2,1-0.4,1.4-0.8c1.9-1.9,0.5-6.3,2.4-10.5c1.3-2.8,2.5-5.9,3.6-8.5c0.5-1.3,3-4.4,3.1-4.8
		c-3.3-1.8-7.2-1.9-11.2,0.2c-3.5,2.6-6.6,5-11.3,4.9s-13.6,0.1-18.5,0.1c-4.6,0-13.5-0.3-18.6-0.3c-1.9,0,2.1-21.9,3-27.6
		c9.3-0.1,32.9-0.1,41-0.3c4.5-0.1,10.9,0.1,13.7,0.1c1.5,0,5.3,0.5,6.7,0.1c11.3-13.8,9.8-11.6,21.8-24.6
		c-14.2,2.2-24,1.4-32.1,1.6c-27,0.5-33.2-1.1-41.9,0.1c-9.3,0.9-18.1,0-22.1-0.1c-4-0.2-10.4-0.8-13.7,0.4
		c-3.4,1.2-4.7,9.5-5.4,11.2c-4.9,12,5,10.2,5.1,11.7c0.2,3.4-1.1,14.1-1.6,20.3c-0.3,2.8-2.2,5.7-3.1,7c0.4,6,6.2,8.3,10.9,11.4
		c-2.6,2.6-8.7,1.8-8.9,6.6c-1.2,7.2,2,16.1,2.1,23.4c0,10.2-1.6,17.5-6.2,25c2-1.4,4.6-1,7-1c2.2,0,4.5,0.8,6,1c3,0.1,6,0,9,0
		c7.3-0.7,16-1,24-1c4.3,0,8.7,0,13,0c17.1,0,21.9-0.4,32,0c4.8,0.2,8.7,0.4,11.1,0.6c0.9-0.9,1.9-1.8,2.8-2.7
		c-0.5-1.1-1.2-2.3-1.8-3.5c-0.7-1.2-1.4-2.4-2.1-3.4c-1.2-6-1.2-12.1,0-18c-4.6,0.5-9.5,1.6-14,2c-5.4,0.5-12.8,0.2-18,0
		s-13.1,0.2-18.6,0.3c-5.3,0.1-15.7,0.9-16.4-1.3c-1.6-5.4-3.6-12.2-2-18c8.7,0,17.3,0,26,0C483.5,229.9,497.5,229.9,502.2,228.4z"
		/>
	
		<linearGradient id="SVGID_6_" gradientUnits="userSpaceOnUse" x1="587.65" y1="203.5" x2="587.65" y2="85.3385" gradientTransform="matrix(1 0 0 -1 0 360)">
		<stop  offset="0" style="stop-color:#BCBCD1"/>
		<stop  offset="1" style="stop-color:#50505C"/>
	</linearGradient>
	<path class="st6" d="M533.9,274.5c2.7,0.1,6,0.2,10,0l0,0c4.7,0,9.3,0,14,0c9.4-0.9,20.6-0.9,30,0c18.2,0,47.7,3.4,49-21
		c0.2-3,0.8-6.7,1-9c0-7.8,1.1-13.3,0.4-18.8c-0.7-5.3-4.3-8.4-8.6-11.9c-2.5-2.1-5.9-3.2-9-4c-14.3-3.5-31,0.5-46.2-0.9
		c-3.8-0.3-10.1-1-10.7-9.3c-1-13.1,3.2-20,14.1-19s25.6,0.4,36.5,0.3c17.6-0.2,18.3-15,28.5-24.4c-19.1,0.9-37.4-0.7-56,1
		c-2.3,0.2-4.7,0.1-7,0c-1.6-0.1-4.1-1-5-1c-7.9,0.7-23.8-1.3-28.2,5.8c-4.4,7-11.1,14.7-10.8,23.2c0,0.5,0,1.5,0,2
		c0,4.7-0.1,9.3,0,14c0.6,30,32.7,28.4,54.4,28.4c7.9,0,18.5-1.8,19.6,2.6c4.4,18-15.5,16-42,16c-16.3,0-21.5,1.3-30,15
		c-0.8,1.4-1.9,5.5-5.5,7.3"/>
	
		<linearGradient id="SVGID_7_" gradientUnits="userSpaceOnUse" x1="135.5585" y1="203.5827" x2="135.5585" y2="85.3" gradientTransform="matrix(1 0 0 -1 0 360)">
		<stop  offset="0" style="stop-color:#BCBCD1"/>
		<stop  offset="1" style="stop-color:#50505C"/>
	</linearGradient>
	<path class="st7" d="M178.9,215.7c1.1-3.1,6.7-3,8.2-6.8s3.4-7.9,3.8-12.2c1.8-19.9-3.7-38.2-26-39c-7.5-0.3-15.5,0-23,0
		s-13.9-0.1-21-1s-16,0.7-23,0s-15.1,0-18,2c10.2,4.2,9,19.2,9,28c-1.2,8,3.4,19.9-5,24c4,2.8,6,7.5,11,9c-9.8,1.8-6,18.3-6,27
		c0,0.1,0,0.3,0.1,0.5c0-0.2-0.1-0.3-0.1-0.5c0.5,10.2,1,20.8-7,28c19.9-1.7,40.7-1,61-1c4,0,8,0,12,0c12,0,23.1,1.1,31-9
		c0.8-1,1.4-1.8,2-3c3.8-7.5,3-15.5,3-24C190.9,230.1,187.5,214.9,178.9,215.7z M114.1,180.9c8.5-0.1,19.7,0.4,27.7,0.3
		c9.3-0.1,21.4-2.3,22.1,8.6c0.3,17.1-4.5,19.2-26,19.2h-23C114.6,201.5,115.7,188,114.1,180.9z M92.9,247.6c0-0.1,0-0.2-0.1-0.3
		C92.8,247.4,92.8,247.5,92.9,247.6z M92.8,247.3c-0.1-0.1-0.1-0.2-0.2-0.3C92.6,247,92.7,247.2,92.8,247.3z M92.5,246.9
		c-0.1-0.1-0.2-0.2-0.3-0.3C92.3,246.7,92.4,246.8,92.5,246.9z M91.5,246.1c-0.2-0.1-0.4-0.2-0.7-0.4
		C91.1,245.9,91.3,246,91.5,246.1z M92.1,246.5c-0.1-0.1-0.3-0.2-0.5-0.3C91.8,246.3,92,246.4,92.1,246.5z M89,247.3
		c0,0.2,0.1,0.3,0.1,0.5C89.1,247.7,89,247.5,89,247.3z M89.3,248.3c0-0.1-0.1-0.2-0.1-0.3C89.2,248.1,89.2,248.2,89.3,248.3z
		 M92.9,248c0-0.1,0-0.2,0-0.3C92.9,247.8,92.9,247.9,92.9,248z M92.1,249.4c0.1-0.1,0.1-0.2,0.2-0.2
		C92.2,249.2,92.1,249.3,92.1,249.4z M92.4,249c0.1-0.1,0.1-0.2,0.2-0.3C92.5,248.8,92.4,248.9,92.4,249z M92.6,248.7
		c0.1-0.1,0.1-0.2,0.1-0.3C92.7,248.5,92.6,248.6,92.6,248.7z M92.8,248.3c0-0.1,0.1-0.2,0.1-0.3C92.8,248.1,92.8,248.2,92.8,248.3z
		 M116.9,248.7c-0.8-0.2-1.3-0.9-2-1c-2.5-5.5,1.9-14.2,0-20c2,0.3,3.8,1.5,6,1c11.2-0.6,24.1-2.3,36-1s10.6,19.4-1,21
		c-6.4,0.9-13.5,0-20,0c-1.7,0-3.3,0-5,0c-2,0-4,0-6,0C122.4,248.7,119.3,249.3,116.9,248.7z"/>
</g>
</svg>
