<?xml version="1.0" encoding="utf-8"?>
<!-- Generator: Adobe Illustrator 25.0.0, SVG Export Plug-In . SVG Version: 6.00 Build 0)  -->
<svg version="1.1" xmlns="http://www.w3.org/2000/svg" xmlns:xlink="http://www.w3.org/1999/xlink" x="0px" y="0px"
	 viewBox="0 0 713 360" style="enable-background:new 0 0 713 360;" xml:space="preserve">
<style type="text/css">
	.st0{display:none;}
	.st1{display:inline;}
	.st2{fill:url(#SVGID_1_);}
	.st3{fill:url(#SVGID_2_);}
	.st4{display:none;opacity:0.43;}
	.st5{display:inline;fill:url(#SVGID_3_);}
	.st6{display:inline;fill:url(#SVGID_4_);}
	.st7{display:inline;fill:url(#SVGID_5_);}
	.st8{display:inline;fill:url(#SVGID_6_);}
	.st9{display:inline;fill:url(#SVGID_7_);}
	.st10{display:inline;fill:url(#SVGID_8_);}
	.st11{display:inline;fill:url(#SVGID_9_);}
	.st12{display:inline;fill:url(#SVGID_10_);}
	.st13{display:inline;fill:url(#SVGID_11_);}
	.st14{display:inline;fill:url(#SVGID_12_);}
	.st15{display:inline;fill:url(#SVGID_13_);}
	.st16{display:inline;fill:url(#SVGID_14_);}
	.st17{display:inline;fill:url(#SVGID_15_);}
	.st18{display:inline;fill:url(#SVGID_16_);}
	.st19{display:inline;fill:url(#SVGID_17_);}
	.st20{display:inline;fill:url(#SVGID_18_);}
	.st21{display:inline;fill:url(#SVGID_19_);}
	.st22{display:inline;fill:url(#SVGID_20_);}
	.st23{display:inline;fill:url(#SVGID_21_);}
	.st24{display:inline;fill:url(#SVGID_22_);}
	.st25{display:inline;fill:url(#SVGID_23_);}
	.st26{display:inline;fill:url(#SVGID_24_);}
	.st27{display:inline;fill:url(#SVGID_25_);}
	.st28{display:inline;fill:url(#SVGID_26_);}
	.st29{display:inline;fill:url(#SVGID_27_);}
	.st30{display:inline;fill:url(#SVGID_28_);}
	.st31{display:inline;fill:url(#SVGID_29_);}
	.st32{display:inline;fill:url(#SVGID_30_);}
	.st33{display:inline;fill:url(#SVGID_31_);}
	.st34{display:inline;fill:url(#SVGID_32_);}
	.st35{display:inline;fill:url(#SVGID_33_);}
	.st36{display:inline;fill:url(#SVGID_34_);}
	.st37{display:inline;fill:url(#SVGID_35_);}
	.st38{display:inline;fill:url(#SVGID_36_);}
	.st39{display:inline;fill:url(#SVGID_37_);}
	.st40{display:inline;fill:url(#SVGID_38_);}
	.st41{display:inline;fill:url(#SVGID_39_);}
	.st42{fill:#DCDCDC;}
	.st43{fill:#ECECEC;}
	.st44{fill:#F3F3F3;}
	.st45{fill:#EDEDED;}
	.st46{fill:#EFEFEF;}
	.st47{fill:#D9D9D9;}
	.st48{fill:#DADADA;}
	.st49{fill:none;stroke:#D40000;stroke-width:0.5;stroke-miterlimit:10;}
	.st50{fill:#50505C;}
	.st51{display:none;opacity:0.74;}
	.st52{display:inline;opacity:0.32;fill:#F41414;}
	.st53{fill:#F4F4F4;}
	.st54{fill:#3300FF;}
	.st55{fill:#F6F6F6;}
	.st56{fill:#FAFAFA;}
	.st57{fill:url(#SVGID_40_);}
	.st58{fill:url(#SVGID_41_);}
	.st59{fill:url(#SVGID_42_);}
	.st60{fill:url(#SVGID_43_);}
	.st61{fill:url(#SVGID_44_);}
	.st62{fill:none;stroke:#00FF00;stroke-miterlimit:10;}
</style>
<g id="Layer_3" class="st0">
	<rect x="-173.8" y="-594.6" class="st1" width="1105.5" height="989.4"/>
</g>
<g id="Layer_6">
	<radialGradient id="SVGID_1_" cx="199.3245" cy="171.2701" r="132.7951" gradientUnits="userSpaceOnUse">
		<stop  offset="0" style="stop-color:#E5E2DF"/>
		<stop  offset="0" style="stop-color:#F1EFEE"/>
		<stop  offset="0" style="stop-color:#FFFFFF"/>
		<stop  offset="0.1259" style="stop-color:#F0F0F1"/>
		<stop  offset="0.3664" style="stop-color:#C9CACB"/>
		<stop  offset="0.5225" style="stop-color:#ADAEB0"/>
		<stop  offset="0.6029" style="stop-color:#A3A5A7"/>
		<stop  offset="0.7382" style="stop-color:#898D90"/>
		<stop  offset="0.9108" style="stop-color:#5F6769"/>
		<stop  offset="1" style="stop-color:#465053"/>
	</radialGradient>
	<polygon class="st2" points="73,32.3 137.1,148.7 299.5,234.4 325.7,310.2 308.5,205.6 	"/>
	<radialGradient id="SVGID_2_" cx="518.0947" cy="171.2701" r="132.7951" gradientUnits="userSpaceOnUse">
		<stop  offset="0" style="stop-color:#E5E2DF"/>
		<stop  offset="0" style="stop-color:#F1EFEE"/>
		<stop  offset="0" style="stop-color:#FFFFFF"/>
		<stop  offset="0.1259" style="stop-color:#F0F0F1"/>
		<stop  offset="0.3664" style="stop-color:#C9CACB"/>
		<stop  offset="0.5225" style="stop-color:#ADAEB0"/>
		<stop  offset="0.6029" style="stop-color:#A3A5A7"/>
		<stop  offset="0.7382" style="stop-color:#898D90"/>
		<stop  offset="0.9108" style="stop-color:#5F6769"/>
		<stop  offset="1" style="stop-color:#465053"/>
	</radialGradient>
	<polygon class="st3" points="644.4,32.3 580.4,148.7 417.9,234.4 391.8,310.2 408.9,205.6 	"/>
</g>
<g id="Layer_1" xmlns:v="https://svgstorm.com" class="st4">
</g>
<g id="Layer_16" class="st4">
	<g>
		<linearGradient id="SVGID_3_" gradientUnits="userSpaceOnUse" x1="305.8151" y1="-159.2993" x2="410.9555" y2="-159.2993">
			<stop  offset="5.618000e-03" style="stop-color:#DEE3E6"/>
			<stop  offset="0.2528" style="stop-color:#FFFDE5"/>
			<stop  offset="0.3953" style="stop-color:#F0ECD8"/>
			<stop  offset="0.5955" style="stop-color:#D6CDC1"/>
			<stop  offset="0.7865" style="stop-color:#EDEDEE"/>
			<stop  offset="1" style="stop-color:#D8D5BB"/>
		</linearGradient>
		<path class="st5" d="M306.9-131.3c1.8,13.8-0.1,28.3,2,42c8.2-10.1,2.4-24.9,3.4-36.3c1-11.4,13.5-18.3,24.6-17.7s32,0.6,43,0
			c11-0.6,23.6,6.3,24.8,17.8c1.1,11.4-5.2,26,3.2,36.2c2-13.8,0.3-29.1,2-43c1.7-13.8,0.8-29,1-43c0.2-14.1-2.8-26.4-4-40
			c-1.2-13.5-18-14.2-29.9-14.1c-12,0.1-26,0.3-38.1,0.1s-28.4,1-29.2,14.8c-0.8,13.8-4.1,26.1-3.8,40.2S305.1-145,306.9-131.3z"/>
		<linearGradient id="SVGID_4_" gradientUnits="userSpaceOnUse" x1="250.8682" y1="-180.4769" x2="276.1201" y2="-180.4769">
			<stop  offset="5.618000e-03" style="stop-color:#DEE3E6"/>
			<stop  offset="0.2528" style="stop-color:#FFFDE5"/>
			<stop  offset="0.3953" style="stop-color:#F0ECD8"/>
			<stop  offset="0.5955" style="stop-color:#D6CDC1"/>
			<stop  offset="0.7865" style="stop-color:#EDEDEE"/>
			<stop  offset="1" style="stop-color:#D8D5BB"/>
		</linearGradient>
		<path class="st6" d="M263.1-196c-2.8,5.2-12.4,4.1-12.2,11.8s0.5,14.8,2,22c6.3-9.2,9.4-22,19.9-29.1
			C283.3-198.4,265.9-201.2,263.1-196z"/>
		<linearGradient id="SVGID_5_" gradientUnits="userSpaceOnUse" x1="442.0399" y1="-180.9709" x2="466.1411" y2="-180.9709">
			<stop  offset="5.618000e-03" style="stop-color:#DEE3E6"/>
			<stop  offset="0.2528" style="stop-color:#FFFDE5"/>
			<stop  offset="0.3953" style="stop-color:#F0ECD8"/>
			<stop  offset="0.5955" style="stop-color:#D6CDC1"/>
			<stop  offset="0.7865" style="stop-color:#EDEDEE"/>
			<stop  offset="1" style="stop-color:#D8D5BB"/>
		</linearGradient>
		<path class="st7" d="M463.9-162.3c0.5-5.8,5-22.9-0.2-26.8c-5.3-3.9-13-12.9-19.7-10.2c-6.6,2.8,5.7,13.8,9.2,17.7
			C456.6-177.6,459.7-166,463.9-162.3z"/>
		<linearGradient id="SVGID_6_" gradientUnits="userSpaceOnUse" x1="327.2016" y1="-82.0967" x2="389.5699" y2="-82.0967">
			<stop  offset="5.618000e-03" style="stop-color:#DEE3E6"/>
			<stop  offset="0.2528" style="stop-color:#FFFDE5"/>
			<stop  offset="0.3953" style="stop-color:#F0ECD8"/>
			<stop  offset="0.5955" style="stop-color:#D6CDC1"/>
			<stop  offset="0.7865" style="stop-color:#EDEDEE"/>
			<stop  offset="1" style="stop-color:#D8D5BB"/>
		</linearGradient>
		<path class="st8" d="M372.9-46.3c1.8-8.7,8.7-13.9,13.2-21.8c4.5-7.9,4.2-20.2,1.5-29c-2.6-8.8,0-23.4-11.8-23.2
			c-11.8,0.2-23.2,0.2-35,0c-11.8-0.2-9.1,14.5-11.7,23.3c-2.6,8.8-3.2,21.1,1.4,29c4.6,7.9,11.5,12.9,13.3,21.7
			C352.7-43.2,364.1-43.2,372.9-46.3z"/>
		<linearGradient id="SVGID_7_" gradientUnits="userSpaceOnUse" x1="271.5388" y1="-91.6344" x2="287.871" y2="-91.6344">
			<stop  offset="5.618000e-03" style="stop-color:#DEE3E6"/>
			<stop  offset="0.2528" style="stop-color:#FFFDE5"/>
			<stop  offset="0.3953" style="stop-color:#F0ECD8"/>
			<stop  offset="0.5955" style="stop-color:#D6CDC1"/>
			<stop  offset="0.7865" style="stop-color:#EDEDEE"/>
			<stop  offset="1" style="stop-color:#D8D5BB"/>
		</linearGradient>
		<path class="st9" d="M287.9-100.3c-11.1-5.1-21.1,10-13.9,16.9C281.2-76.5,284.8-97.2,287.9-100.3z"/>
		<linearGradient id="SVGID_8_" gradientUnits="userSpaceOnUse" x1="428.871" y1="-91.6115" x2="445.3592" y2="-91.6115">
			<stop  offset="5.618000e-03" style="stop-color:#DEE3E6"/>
			<stop  offset="0.2528" style="stop-color:#FFFDE5"/>
			<stop  offset="0.3953" style="stop-color:#F0ECD8"/>
			<stop  offset="0.5955" style="stop-color:#D6CDC1"/>
			<stop  offset="0.7865" style="stop-color:#EDEDEE"/>
			<stop  offset="1" style="stop-color:#D8D5BB"/>
		</linearGradient>
		<path class="st10" d="M428.9-100.3c2.9,2.9,6.8,23.8,14.1,17.1C450.2-89.9,439.8-105.6,428.9-100.3z"/>
		<linearGradient id="SVGID_9_" gradientUnits="userSpaceOnUse" x1="304.8623" y1="-32.5091" x2="356.7141" y2="-32.5091">
			<stop  offset="5.618000e-03" style="stop-color:#DEE3E6"/>
			<stop  offset="0.2528" style="stop-color:#FFFDE5"/>
			<stop  offset="0.3953" style="stop-color:#F0ECD8"/>
			<stop  offset="0.5955" style="stop-color:#D6CDC1"/>
			<stop  offset="0.7865" style="stop-color:#EDEDEE"/>
			<stop  offset="1" style="stop-color:#D8D5BB"/>
		</linearGradient>
		<path class="st11" d="M325.8-17.2c9.2,7.2,19.4,16,30.1,20.9c3.7-13.6-5.8-24.5-10.2-37.8c-4.5-13.2-13.5-17-20.8-30.2
			c-7.3-13.1-19.5,4.9-19.9,16.9S316.6-24.4,325.8-17.2z"/>
		<linearGradient id="SVGID_10_" gradientUnits="userSpaceOnUse" x1="359.4751" y1="-32.7708" x2="411.4965" y2="-32.7708">
			<stop  offset="5.618000e-03" style="stop-color:#DEE3E6"/>
			<stop  offset="0.2528" style="stop-color:#FFFDE5"/>
			<stop  offset="0.3953" style="stop-color:#F0ECD8"/>
			<stop  offset="0.5955" style="stop-color:#D6CDC1"/>
			<stop  offset="0.7865" style="stop-color:#EDEDEE"/>
			<stop  offset="1" style="stop-color:#D8D5BB"/>
		</linearGradient>
		<path class="st12" d="M386.6-13.5c8.7-6.7,14.7-12,21.5-21.5c6.8-9.6,2.3-20-3.9-30.5c-6.2-10.5-14.3,3.8-20,11.6
			c-5.7,7.8-13.3,17.2-16,27c-2.7,9.8-12.3,20.4-7.3,30.7C370.6-0.9,377.9-6.8,386.6-13.5z"/>
		<linearGradient id="SVGID_11_" gradientUnits="userSpaceOnUse" x1="242.74" y1="-56.8535" x2="246.2125" y2="-56.8535">
			<stop  offset="5.618000e-03" style="stop-color:#DEE3E6"/>
			<stop  offset="0.2528" style="stop-color:#FFFDE5"/>
			<stop  offset="0.3953" style="stop-color:#F0ECD8"/>
			<stop  offset="0.5955" style="stop-color:#D6CDC1"/>
			<stop  offset="0.7865" style="stop-color:#EDEDEE"/>
			<stop  offset="1" style="stop-color:#D8D5BB"/>
		</linearGradient>
		<path class="st13" d="M245.9-58.3c-1.1-1.1-4.3,1-2.7,2.7S247.1-57,245.9-58.3z"/>
		<linearGradient id="SVGID_12_" gradientUnits="userSpaceOnUse" x1="470.74" y1="-56.8535" x2="474.2125" y2="-56.8535">
			<stop  offset="5.618000e-03" style="stop-color:#DEE3E6"/>
			<stop  offset="0.2528" style="stop-color:#FFFDE5"/>
			<stop  offset="0.3953" style="stop-color:#F0ECD8"/>
			<stop  offset="0.5955" style="stop-color:#D6CDC1"/>
			<stop  offset="0.7865" style="stop-color:#EDEDEE"/>
			<stop  offset="1" style="stop-color:#D8D5BB"/>
		</linearGradient>
		<path class="st14" d="M471.2-55.6c1.6,1.6,3.9-1.5,2.7-2.7C472.8-59.4,469.6-57.2,471.2-55.6z"/>
		<linearGradient id="SVGID_13_" gradientUnits="userSpaceOnUse" x1="187.3027" y1="-103.6888" x2="529.5906" y2="-103.6888">
			<stop  offset="5.618000e-03" style="stop-color:#DEE3E6"/>
			<stop  offset="0.2528" style="stop-color:#FFFDE5"/>
			<stop  offset="0.3953" style="stop-color:#F0ECD8"/>
			<stop  offset="0.5955" style="stop-color:#D6CDC1"/>
			<stop  offset="0.7865" style="stop-color:#EDEDEE"/>
			<stop  offset="1" style="stop-color:#D8D5BB"/>
		</linearGradient>
		<path class="st15" d="M215.6-40.9c7.3,20.2,25,31.4,41.6,43.4c16.5,12,27.5,28.7,45.8,38.2c-1.1-4.9,11.4-4,15.8-1.8
			c4.3,2.3,9.2,5.9,14.2,7.8c5,1.9,11,5.8,17,5c-1-12.6-19-9.8-27-17c-1.9-15.5-8.4-33.7-13-48c-4.6-14.3-15.8-24.3-23.7-36.3
			c-7.9-12-14.8-31-31.3-27.7c-16.5,3.3-35.3-4.5-37-21c6.2,6.1,11,15.2,20,17c9,1.8,25.9,1.6,25-10c-0.8-11.7-5-18.4-7-29
			c-2.1-10.6-5.1-19.7-7-30c-1.9-10.4-3-20-6-30c-8.6,7.6-10.7,13.8-17.7,23.3c-7,9.5-6.2,16.7-13,28c-6.8,11.3-12.8-9.7-6.2-18.2
			c6.6-8.5,7.4-19.1,14.2-26.8c6.8-7.7,9.6-17.3,18.7-22.3c9.1-5,15.4-10.5,24.8-15.1c9.4-4.6,16.2-10.8,27-14
			c10.8-3.2,13.3-14.2,18.2-21.8c9.1,18.1,33,10.8,50,11c17,0.1,39.9,6.8,49-11c4.7,7.9,8.1,18.9,18.9,22.1c10.9,3.2,17.6,9.5,27,14
			c9.4,4.5,15.8,10.6,24.8,15.2c9.1,4.6,11.5,16,18.3,22.7c6.8,6.6,7.7,20.6,14,27c6.3,6.4,0.2,34.7-6.8,16.8
			c-7-17.9-15.8-37-30.3-50.7c-3.1,10-4.1,20.6-6.1,30.9c-2,10.3-5.2,19.5-7,30c-1.8,10.4-6.9,17.8-6.9,29.1c0,11.3,17.4,10.8,26,9
			c8.6-1.8,12.8-11.5,19-17c-1.5,17.4-21.4,23.7-37.8,20.8c-16.4-2.9-22.5,16.3-30.5,28s-19.6,22.8-24,37
			c-4.4,14.2-11.1,31.9-12.8,47.2c-8,7.2-26,4.5-27,17c6,1,12-3.2,16.9-5.1c5-1.9,10.1-5.2,14.4-7.6c4.3-2.4,16.9-3.2,15.7,1.7
			C432.1,31.2,443.6,14,460.2,2c16.6-12,33.8-22.8,40.9-43.1c7.2-20.2,19-37.7,26.5-58.5c7.4-20.9-7.1-42.9-14.9-62.4
			c-7.8-19.5-24-31.2-32.5-50.5c-8.5-19.3-24.9-30.5-46.2-37.8c-21.4-7.3-52.2-8.8-76.1-8.9c-23.9-0.1-53.5,1.9-74.9,9.1
			c-21.4,7.1-38.4,18.6-46.8,38.2c-8.4,19.5-24,30.5-31.9,50.1c-8,19.6-22.5,42.1-14.6,63C197.4-78,208.3-61.2,215.6-40.9z
			 M233.9-21.3C243.8-20.2,231.5-9.5,233.9-21.3L233.9-21.3z M246.9-72.3c11.5,3.5,21.9,17.5,13.8,29.8c-8.2,12.2-26.7,9.8-31.5-2
			C224.3-56.3,232.5-76.6,246.9-72.3z M484.6-39.5c-7.6,9.5-27.8,4.4-31.1-8.4c-3.3-12.9,12.3-27.3,24.3-24.3
			C489.5-69.4,492.2-49,484.6-39.5z"/>
		<linearGradient id="SVGID_14_" gradientUnits="userSpaceOnUse" x1="175.3847" y1="22.9842" x2="204.0275" y2="22.9842">
			<stop  offset="5.618000e-03" style="stop-color:#DEE3E6"/>
			<stop  offset="0.2528" style="stop-color:#FFFDE5"/>
			<stop  offset="0.3953" style="stop-color:#F0ECD8"/>
			<stop  offset="0.5955" style="stop-color:#D6CDC1"/>
			<stop  offset="0.7865" style="stop-color:#EDEDEE"/>
			<stop  offset="1" style="stop-color:#D8D5BB"/>
		</linearGradient>
		<path class="st16" d="M180.9-6.3c-5.1,18.1-6.3,38-5,57c15.5,6.3,29.8-8.5,28-24S199.9-5.1,180.9-6.3z"/>
		<linearGradient id="SVGID_15_" gradientUnits="userSpaceOnUse" x1="512.7131" y1="22.987" x2="541.3559" y2="22.987">
			<stop  offset="5.618000e-03" style="stop-color:#DEE3E6"/>
			<stop  offset="0.2528" style="stop-color:#FFFDE5"/>
			<stop  offset="0.3953" style="stop-color:#F0ECD8"/>
			<stop  offset="0.5955" style="stop-color:#D6CDC1"/>
			<stop  offset="0.7865" style="stop-color:#EDEDEE"/>
			<stop  offset="1" style="stop-color:#D8D5BB"/>
		</linearGradient>
		<path class="st17" d="M512.9,26.7c-1.8,15.5,12.5,30.3,28,24c1.3-19,0.1-38.9-5-57C516.8-5.1,514.7,11.3,512.9,26.7z"/>
		<linearGradient id="SVGID_16_" gradientUnits="userSpaceOnUse" x1="495.871" y1="87.4142" x2="542.8807" y2="87.4142">
			<stop  offset="5.618000e-03" style="stop-color:#DEE3E6"/>
			<stop  offset="0.2528" style="stop-color:#FFFDE5"/>
			<stop  offset="0.3953" style="stop-color:#F0ECD8"/>
			<stop  offset="0.5955" style="stop-color:#D6CDC1"/>
			<stop  offset="0.7865" style="stop-color:#EDEDEE"/>
			<stop  offset="1" style="stop-color:#D8D5BB"/>
		</linearGradient>
		<path class="st18" d="M518.9,52.7c-12.6-1.4-12.5,20.5-15.1,30.9c-2.6,10.4-6.1,26.9-7.9,38.1c4.7,0,9.9,1.7,14.2-1.8
			c4.3-3.4,6.6-5.7,10.8-9.2c2.2-1.9,4.1-3.8,6-6c8.2-7.9,16.9-18,15.9-29.9C541.8,62.9,531.5,54.1,518.9,52.7z"/>
		<linearGradient id="SVGID_17_" gradientUnits="userSpaceOnUse" x1="265.1794" y1="45.9515" x2="313.871" y2="45.9515">
			<stop  offset="5.618000e-03" style="stop-color:#DEE3E6"/>
			<stop  offset="0.2528" style="stop-color:#FFFDE5"/>
			<stop  offset="0.3953" style="stop-color:#F0ECD8"/>
			<stop  offset="0.5955" style="stop-color:#D6CDC1"/>
			<stop  offset="0.7865" style="stop-color:#EDEDEE"/>
			<stop  offset="1" style="stop-color:#D8D5BB"/>
		</linearGradient>
		<path class="st19" d="M265.9,29.7c-6,25,28.2,40.5,48,28c-8.6-4.2-23-0.1-32.9-5.1C271,47.7,270.8,37.8,265.9,29.7z"/>
		<linearGradient id="SVGID_18_" gradientUnits="userSpaceOnUse" x1="402.871" y1="45.9499" x2="451.5529" y2="45.9499">
			<stop  offset="5.618000e-03" style="stop-color:#DEE3E6"/>
			<stop  offset="0.2528" style="stop-color:#FFFDE5"/>
			<stop  offset="0.3953" style="stop-color:#F0ECD8"/>
			<stop  offset="0.5955" style="stop-color:#D6CDC1"/>
			<stop  offset="0.7865" style="stop-color:#EDEDEE"/>
			<stop  offset="1" style="stop-color:#D8D5BB"/>
		</linearGradient>
		<path class="st20" d="M435.9,52.8c-9.9,5-24.6,0.5-33.1,4.9c19.8,12.5,53.9-2.9,48-28C445.8,37.5,445.9,47.8,435.9,52.8z"/>
		<linearGradient id="SVGID_19_" gradientUnits="userSpaceOnUse" x1="173.7337" y1="87.4156" x2="220.871" y2="87.4156">
			<stop  offset="5.618000e-03" style="stop-color:#DEE3E6"/>
			<stop  offset="0.2528" style="stop-color:#FFFDE5"/>
			<stop  offset="0.3953" style="stop-color:#F0ECD8"/>
			<stop  offset="0.5955" style="stop-color:#D6CDC1"/>
			<stop  offset="0.7865" style="stop-color:#EDEDEE"/>
			<stop  offset="1" style="stop-color:#D8D5BB"/>
		</linearGradient>
		<path class="st21" d="M195.9,110.7c4,3.5,6.4,5.8,10.8,9.2s9.6,1.8,14.2,1.8c-1.8-11.2-5.4-27.6-8-38c-2.6-10.4-2.2-32.5-15-31
			c-12.8,1.6-22.6,9.8-24,22c-1.4,12.2,8.6,21.4,16,30C191.7,106.9,193.7,108.8,195.9,110.7z"/>
		<linearGradient id="SVGID_20_" gradientUnits="userSpaceOnUse" x1="61.871" y1="174.7419" x2="139.871" y2="174.7419">
			<stop  offset="5.618000e-03" style="stop-color:#DEE3E6"/>
			<stop  offset="0.2528" style="stop-color:#FFFDE5"/>
			<stop  offset="0.3953" style="stop-color:#F0ECD8"/>
			<stop  offset="0.5955" style="stop-color:#D6CDC1"/>
			<stop  offset="0.7865" style="stop-color:#EDEDEE"/>
			<stop  offset="1" style="stop-color:#D8D5BB"/>
		</linearGradient>
		<path class="st22" d="M139.9,105.7c-12.5,5.1-7.1,28.2-18.3,34.7s-21.2,11.8-31,22s-18.5,17.7-20.8,32.2
			c-2.3,14.5-7.3,28.9-7.9,44.1c0.6,2,2,2.1,3,4c4-2.1,4.4-1,6.9-1.1c2.5-0.2,5.8-1.6,6.1,2.1c2.1-5,8,1.9,10-4
			c-2.3-11.8-17.4-25-8.8-35.8c8.7-10.8,11-23.3,19-34c8-10.7,17.5-17,26-27C132.6,133,133.7,117.2,139.9,105.7z"/>
		<linearGradient id="SVGID_21_" gradientUnits="userSpaceOnUse" x1="559.871" y1="189.7449" x2="673.9587" y2="189.7449">
			<stop  offset="5.618000e-03" style="stop-color:#DEE3E6"/>
			<stop  offset="0.2528" style="stop-color:#FFFDE5"/>
			<stop  offset="0.3953" style="stop-color:#F0ECD8"/>
			<stop  offset="0.5955" style="stop-color:#D6CDC1"/>
			<stop  offset="0.7865" style="stop-color:#EDEDEE"/>
			<stop  offset="1" style="stop-color:#D8D5BB"/>
		</linearGradient>
		<path class="st23" d="M668.9,231.8c-1.2-6-2.9-13.5-4.2-18.8c-1.3-5.3-7.6-14-0.8-12.2c-9-10.8-19.7-20.1-30.2-30.8
			s-20.3-21.4-34.1-26.9c-13.8-5.5-10.7-30.3-22.7-37.3c4.4,10.1,7.7,22.8,12.7,32.3c5,9.5,14.2,14.7,21.1,22.9
			c6.9,8.2,14.4,16.2,17.5,26.5c3.1,10.3,15.6,17.7,11.7,28.1c-3.9,10.5-11.1,18.9-14.1,29.9c-3.1,10.9-14.2,22.7-18.9,9.3
			c-4.6-13.4-8.7-19.1-13.6-30.4c-4.9-11.3-9-19.5-14.5-29.5c-5.6-9.9-8.5-21.4-18.8-25.2c0.4,11.8,8.9,23.4,13.2,33.8
			c4.3,10.4,17.2,21.3,5.8,31.2c-2.3-2.6-4.6-0.7-7-2c-9.2,9.7,0.4,21,0,31c4.5-0.2,10.5,3.1,12-1c5.8,4.8,15,1,24.1,2.9
			c9.1,1.9,21-1.8,27.9,4.1c2.9,0.2,1.6-4.6,4-1c2.9-5.4,8.5-10.6,10.3-16.7c1.9-6.1,10.3-15,12.6-5.2c2.3,9.7,2.5,14.6,4.1,23.9
			c2,2.2,1.8-1.7,4-1c2.3,1.4,0.2,4.2,3,4c0.5-7.2-1.2-15.6-1.7-22.3C671.7,244.7,670.1,237.8,668.9,231.8z"/>
		<linearGradient id="SVGID_22_" gradientUnits="userSpaceOnUse" x1="227.0571" y1="102.318" x2="263.8835" y2="102.318">
			<stop  offset="5.618000e-03" style="stop-color:#DEE3E6"/>
			<stop  offset="0.2528" style="stop-color:#FFFDE5"/>
			<stop  offset="0.3953" style="stop-color:#F0ECD8"/>
			<stop  offset="0.5955" style="stop-color:#D6CDC1"/>
			<stop  offset="0.7865" style="stop-color:#EDEDEE"/>
			<stop  offset="1" style="stop-color:#D8D5BB"/>
		</linearGradient>
		<path class="st24" d="M228,87.8c-4.8,3.8,10.7,11.5,14.7,16.2s17.8,8,21.2,13.8c0.4-6.6-9.8-14.4-13.2-19.8
			C247.2,92.6,232.7,84.1,228,87.8z"/>
		<linearGradient id="SVGID_23_" gradientUnits="userSpaceOnUse" x1="452.8407" y1="102.8282" x2="489.6393" y2="102.8282">
			<stop  offset="5.618000e-03" style="stop-color:#DEE3E6"/>
			<stop  offset="0.2528" style="stop-color:#FFFDE5"/>
			<stop  offset="0.3953" style="stop-color:#F0ECD8"/>
			<stop  offset="0.5955" style="stop-color:#D6CDC1"/>
			<stop  offset="0.7865" style="stop-color:#EDEDEE"/>
			<stop  offset="1" style="stop-color:#D8D5BB"/>
		</linearGradient>
		<path class="st25" d="M478.9,89.8c-6.7,1.2-12,6.8-15.8,12.2s-10.8,9.4-10.2,15.8c9.7-8,23.2-13.2,32.8-23.2
			C495.2,84.5,485.6,88.6,478.9,89.8z"/>
		<linearGradient id="SVGID_24_" gradientUnits="userSpaceOnUse" x1="273.871" y1="98.5616" x2="322.0218" y2="98.5616">
			<stop  offset="5.618000e-03" style="stop-color:#DEE3E6"/>
			<stop  offset="0.2528" style="stop-color:#FFFDE5"/>
			<stop  offset="0.3953" style="stop-color:#F0ECD8"/>
			<stop  offset="0.5955" style="stop-color:#D6CDC1"/>
			<stop  offset="0.7865" style="stop-color:#EDEDEE"/>
			<stop  offset="1" style="stop-color:#D8D5BB"/>
		</linearGradient>
		<path class="st26" d="M321.6,96c-3.4-5.5-19.8-0.7-25.5,0c-5.7,0.7-19,2-22.2,6.8c6.2,1.5,21.7,1.5,26.9-1.1
			C306,99.1,325,101.5,321.6,96z"/>
		<linearGradient id="SVGID_25_" gradientUnits="userSpaceOnUse" x1="394.847" y1="98.5462" x2="442.871" y2="98.5462">
			<stop  offset="5.618000e-03" style="stop-color:#DEE3E6"/>
			<stop  offset="0.2528" style="stop-color:#FFFDE5"/>
			<stop  offset="0.3953" style="stop-color:#F0ECD8"/>
			<stop  offset="0.5955" style="stop-color:#D6CDC1"/>
			<stop  offset="0.7865" style="stop-color:#EDEDEE"/>
			<stop  offset="1" style="stop-color:#D8D5BB"/>
		</linearGradient>
		<path class="st27" d="M442.9,102.7c-3.3-4.9-17.3-6.2-23-7c-5.7-0.8-21.6-5.2-24.7,0.3c-3.1,5.5,16.5,3.1,21.7,5.7
			C422,104.4,436.8,104.1,442.9,102.7z"/>
		<linearGradient id="SVGID_26_" gradientUnits="userSpaceOnUse" x1="177.7071" y1="150.8405" x2="249.6162" y2="150.8405">
			<stop  offset="5.618000e-03" style="stop-color:#DEE3E6"/>
			<stop  offset="0.2528" style="stop-color:#FFFDE5"/>
			<stop  offset="0.3953" style="stop-color:#F0ECD8"/>
			<stop  offset="0.5955" style="stop-color:#D6CDC1"/>
			<stop  offset="0.7865" style="stop-color:#EDEDEE"/>
			<stop  offset="1" style="stop-color:#D8D5BB"/>
		</linearGradient>
		<path class="st28" d="M231.6,154c-7-3.4-13.3-7.1-19-12c-5.7-4.9-11-9.3-16-15c-4.9-5.7-10-13.5-18.8-12.2c-0.9,10.4,2,19.9,6,29
			c-1.9-13.7,7.5-13.6,14.3-6.3c6.9,7.3,12.2,8.7,18.5,15.5c6.3,6.9,8.1,12.9,12.2,20.8c10.7-3.1,4.4,9,14.3,12.7
			c9.9,3.7,6.3-9.3,3-16S238.6,157.4,231.6,154z"/>
		<linearGradient id="SVGID_27_" gradientUnits="userSpaceOnUse" x1="466.1039" y1="151.4432" x2="539.0349" y2="151.4432">
			<stop  offset="5.618000e-03" style="stop-color:#DEE3E6"/>
			<stop  offset="0.2528" style="stop-color:#FFFDE5"/>
			<stop  offset="0.3953" style="stop-color:#F0ECD8"/>
			<stop  offset="0.5955" style="stop-color:#D6CDC1"/>
			<stop  offset="0.7865" style="stop-color:#EDEDEE"/>
			<stop  offset="1" style="stop-color:#D8D5BB"/>
		</linearGradient>
		<path class="st29" d="M516.6,130.5c-6,6-13.5,12.8-20,17c-6.5,4.2-18.1,8.7-22,15c-3.8,6.4-13.1,20.8-5.8,25.2
			c7.4,4.5,11.8-20.2,19-14c4.1-7.9,6.3-14.5,12.8-21.2s11.6-8.4,18.5-15.5s15.5-6.4,13.8,6.8c4-9.1,6.9-18.6,6-29
			C528.7,113.3,522.6,124.5,516.6,130.5z"/>
		<linearGradient id="SVGID_28_" gradientUnits="userSpaceOnUse" x1="119.871" y1="202.2419" x2="167.871" y2="202.2419">
			<stop  offset="5.618000e-03" style="stop-color:#DEE3E6"/>
			<stop  offset="0.2528" style="stop-color:#FFFDE5"/>
			<stop  offset="0.3953" style="stop-color:#F0ECD8"/>
			<stop  offset="0.5955" style="stop-color:#D6CDC1"/>
			<stop  offset="0.7865" style="stop-color:#EDEDEE"/>
			<stop  offset="1" style="stop-color:#D8D5BB"/>
		</linearGradient>
		<path class="st30" d="M148.8,198.7c-5.6,9.1-10.4,20.4-14.9,30.1c0.7-20.2,21.8-37.5,23-59c-11.7,4-14.1,19.2-20.7,29.3
			c-6.6,10.1-10.8,22.9-16.3,33.7c1.2-1.1,4.8-0.6,6,2c2.4-1.5,3.7-1.9,7-1c3.1-0.3,4.3-2.9,2-6c16.8-13.7,25-35.8,33-55
			C158.3,176.5,154.4,189.5,148.8,198.7z"/>
		<linearGradient id="SVGID_29_" gradientUnits="userSpaceOnUse" x1="548.871" y1="198.2419" x2="580.871" y2="198.2419">
			<stop  offset="5.618000e-03" style="stop-color:#DEE3E6"/>
			<stop  offset="0.2528" style="stop-color:#FFFDE5"/>
			<stop  offset="0.3953" style="stop-color:#F0ECD8"/>
			<stop  offset="0.5955" style="stop-color:#D6CDC1"/>
			<stop  offset="0.7865" style="stop-color:#EDEDEE"/>
			<stop  offset="1" style="stop-color:#D8D5BB"/>
		</linearGradient>
		<path class="st31" d="M580.9,223.7c-5.3-8.3-8.9-19.5-14.2-27.8c-5.4-8.3-8.7-20.2-17.8-23.2c2.4,9.7,8.4,20.2,13.2,28.8
			C566.9,210.1,570.5,222.3,580.9,223.7z"/>
		<linearGradient id="SVGID_30_" gradientUnits="userSpaceOnUse" x1="305.3695" y1="172.2393" x2="411.1241" y2="172.2393">
			<stop  offset="5.618000e-03" style="stop-color:#DEE3E6"/>
			<stop  offset="0.2528" style="stop-color:#FFFDE5"/>
			<stop  offset="0.3953" style="stop-color:#F0ECD8"/>
			<stop  offset="0.5955" style="stop-color:#D6CDC1"/>
			<stop  offset="0.7865" style="stop-color:#EDEDEE"/>
			<stop  offset="1" style="stop-color:#D8D5BB"/>
		</linearGradient>
		<path class="st32" d="M390.1,150.5c-6.7-11.3-19.6-12.9-32.2-12.8s-24.6,1.6-31.2,12.8s-13.1,14.9-19.5,25.5
			c-6.5,10.6,6.9,20.4,8.8,30.8c10.2-5.1,9.2-23,20-29c1.5,4.3-3,10.5,4,10c7-0.5,8.9-1.1,15-3c1.8-6.6-2.5-12.4-9-13
			c7.7-1.1,11.5-7.6,12.6-14.6c0,7.4,5.2,13.2,12.4,14.6c-6.4,0.6-10.8,6.4-9,13c6.2,1.9,8,2.6,15,3s2.5-5.7,4-10
			c10.8,6,9.9,23.9,20,29c2.5-10.6,15.1-20.6,8.2-31.2C402.3,164.8,396.8,161.8,390.1,150.5z"/>
		<linearGradient id="SVGID_31_" gradientUnits="userSpaceOnUse" x1="255.871" y1="212.0652" x2="291.1114" y2="212.0652">
			<stop  offset="5.618000e-03" style="stop-color:#DEE3E6"/>
			<stop  offset="0.2528" style="stop-color:#FFFDE5"/>
			<stop  offset="0.3953" style="stop-color:#F0ECD8"/>
			<stop  offset="0.5955" style="stop-color:#D6CDC1"/>
			<stop  offset="0.7865" style="stop-color:#EDEDEE"/>
			<stop  offset="1" style="stop-color:#D8D5BB"/>
		</linearGradient>
		<path class="st33" d="M280.1,205.5c-6.5-4.9-15.1-13.6-24.2-12.8c2.1,7.6,13.3,14.5,18.7,19.3c5.4,4.9,5.6,24.9,13.5,17.9
			C296,223,286.6,210.5,280.1,205.5z"/>
		<linearGradient id="SVGID_32_" gradientUnits="userSpaceOnUse" x1="425.5441" y1="212.0289" x2="460.871" y2="212.0289">
			<stop  offset="5.618000e-03" style="stop-color:#DEE3E6"/>
			<stop  offset="0.2528" style="stop-color:#FFFDE5"/>
			<stop  offset="0.3953" style="stop-color:#F0ECD8"/>
			<stop  offset="0.5955" style="stop-color:#D6CDC1"/>
			<stop  offset="0.7865" style="stop-color:#EDEDEE"/>
			<stop  offset="1" style="stop-color:#D8D5BB"/>
		</linearGradient>
		<path class="st34" d="M436.1,206c-6.4,5-15.4,17.1-7.5,24s8.4-13.9,14-18.5s16.1-11.3,18.2-18.8C451.7,191.9,442.6,201,436.1,206z
			"/>
		<linearGradient id="SVGID_33_" gradientUnits="userSpaceOnUse" x1="188.871" y1="236.9005" x2="225.871" y2="236.9005">
			<stop  offset="5.618000e-03" style="stop-color:#DEE3E6"/>
			<stop  offset="0.2528" style="stop-color:#FFFDE5"/>
			<stop  offset="0.3953" style="stop-color:#F0ECD8"/>
			<stop  offset="0.5955" style="stop-color:#D6CDC1"/>
			<stop  offset="0.7865" style="stop-color:#EDEDEE"/>
			<stop  offset="1" style="stop-color:#D8D5BB"/>
		</linearGradient>
		<path class="st35" d="M215.9,205.7c-14.4,7.9-23.5,24.6-27,40c11.4-2.8,12.2,13,15,21c1.8,1.9,9.6,1.6,12,0c2.4-1.6,9.7,3.3,10,0
			c-4.5-10.3-12-19.1-14.7-30.3S211.4,215.6,215.9,205.7z"/>
		<linearGradient id="SVGID_34_" gradientUnits="userSpaceOnUse" x1="498.871" y1="230.2419" x2="527.871" y2="230.2419">
			<stop  offset="5.618000e-03" style="stop-color:#DEE3E6"/>
			<stop  offset="0.2528" style="stop-color:#FFFDE5"/>
			<stop  offset="0.3953" style="stop-color:#F0ECD8"/>
			<stop  offset="0.5955" style="stop-color:#D6CDC1"/>
			<stop  offset="0.7865" style="stop-color:#EDEDEE"/>
			<stop  offset="1" style="stop-color:#D8D5BB"/>
		</linearGradient>
		<path class="st36" d="M500.9,205.7c1,4.6,5.4,8.2,6,13c-4.3-2-1.4,2.5-1,4c0.1,11.5-1.7,18.5-7,29c4.2-2.8,6.1,3.2,11,2
			c-4.3-3.5,6.2-0.8,7,1c-0.2-7.2,4.9-10.3,11-9C524.3,230.3,515.3,213.7,500.9,205.7z"/>
		<linearGradient id="SVGID_35_" gradientUnits="userSpaceOnUse" x1="137.8402" y1="232.2504" x2="144.9493" y2="232.2504">
			<stop  offset="5.618000e-03" style="stop-color:#DEE3E6"/>
			<stop  offset="0.2528" style="stop-color:#FFFDE5"/>
			<stop  offset="0.3953" style="stop-color:#F0ECD8"/>
			<stop  offset="0.5955" style="stop-color:#D6CDC1"/>
			<stop  offset="0.7865" style="stop-color:#EDEDEE"/>
			<stop  offset="1" style="stop-color:#D8D5BB"/>
		</linearGradient>
		<path class="st37" d="M143.9,229.7c-2.5,0.7-3.3,2.7-6,1c-0.2,1.5,1.1,2.4,2,3c0.7,0.5,5.2,1.1,5,1
			C145.5,232.6,141.7,231.6,143.9,229.7z"/>
		<linearGradient id="SVGID_36_" gradientUnits="userSpaceOnUse" x1="459.871" y1="239.7419" x2="481.8784" y2="239.7419">
			<stop  offset="5.618000e-03" style="stop-color:#DEE3E6"/>
			<stop  offset="0.2528" style="stop-color:#FFFDE5"/>
			<stop  offset="0.3953" style="stop-color:#F0ECD8"/>
			<stop  offset="0.5955" style="stop-color:#D6CDC1"/>
			<stop  offset="0.7865" style="stop-color:#EDEDEE"/>
			<stop  offset="1" style="stop-color:#D8D5BB"/>
		</linearGradient>
		<path class="st38" d="M471.6,240.5c-3.5,4.9-6.9,9.7-11.8,13.2c2.8-0.2,2.5,1.7,5,2c0.8-1.5,2.1-3.2,4-3c9-6.6,15.6-17.4,12-29
			C474.7,225.3,475.2,235.6,471.6,240.5z"/>
		<linearGradient id="SVGID_37_" gradientUnits="userSpaceOnUse" x1="345.871" y1="200.1071" x2="370.871" y2="200.1071">
			<stop  offset="5.618000e-03" style="stop-color:#DEE3E6"/>
			<stop  offset="0.2528" style="stop-color:#FFFDE5"/>
			<stop  offset="0.3953" style="stop-color:#F0ECD8"/>
			<stop  offset="0.5955" style="stop-color:#D6CDC1"/>
			<stop  offset="0.7865" style="stop-color:#EDEDEE"/>
			<stop  offset="1" style="stop-color:#D8D5BB"/>
		</linearGradient>
		<path class="st39" d="M345.9,200.7c8.1,0.8,17.7,2.5,25-1C363.3,198.7,352.3,196.8,345.9,200.7z"/>
		<linearGradient id="SVGID_38_" gradientUnits="userSpaceOnUse" x1="24.871" y1="-81.1279" x2="183.6353" y2="-81.1279">
			<stop  offset="5.618000e-03" style="stop-color:#DEE3E6"/>
			<stop  offset="0.2528" style="stop-color:#FFFDE5"/>
			<stop  offset="0.3953" style="stop-color:#F0ECD8"/>
			<stop  offset="0.5955" style="stop-color:#D6CDC1"/>
			<stop  offset="0.7865" style="stop-color:#EDEDEE"/>
			<stop  offset="1" style="stop-color:#D8D5BB"/>
		</linearGradient>
		<path class="st40" d="M179.7-89.9c-2.7-11.1-3.6-18.2-5.8-30.2c-2.2-12,13.3-13.5,9-25c-11-5.3-21.5-12.9-32.2-18.8
			c-10.8-5.9-20.5-12.9-31-18.9c-10.6-6.1-21.5-12.9-32-19c-10.5-6.1-20.7-13-31-19c-10.4-6-20.6-15.6-31.7-16.3
			c8.3,17.2,19.6,33.1,27.7,50.3c8.1,17.2,19.4,32.6,27,50c7.6,17.4,26.2,26.1,40.1,36.9c13.8,10.9,40.6,19.5,30.2,40.8
			c-7.3-1.8-9.2,9.8-11,18c-1.9,8.2-2.8,19.7-4,29c-1.2,9.3-2.1,21-2,31c0.1,10-0.2,22.4,1,32c1.2,9.6,3.3,17,6,24
			c8.8-3.6,4-17.3,4-26c0-8.7,1-23.7,0-32s2.4-27.1,5-17s-2,21.4,2,30c4.1,8.6,5.6,16.1,16,13c0.7-11.2,2.7-22.8,3-34
			c0.3-11.2,2.2-22.1,3-33c0.8-10.9,3.9-21.1,4-32S182.4-78.8,179.7-89.9z"/>
		<linearGradient id="SVGID_39_" gradientUnits="userSpaceOnUse" x1="533.2424" y1="-77.1279" x2="691.871" y2="-77.1279">
			<stop  offset="5.618000e-03" style="stop-color:#DEE3E6"/>
			<stop  offset="0.2528" style="stop-color:#FFFDE5"/>
			<stop  offset="0.3953" style="stop-color:#F0ECD8"/>
			<stop  offset="0.5955" style="stop-color:#D6CDC1"/>
			<stop  offset="0.7865" style="stop-color:#EDEDEE"/>
			<stop  offset="1" style="stop-color:#D8D5BB"/>
		</linearGradient>
		<path class="st41" d="M567.9,22.9c1.2-8.8-0.8-11,0-20c0.8-9,4.9-3.8,5,4c0.1,7.8-0.4,12.4,0,21c0.4,8.6-1.1,9.3,0,20
			s-5.6,26.6,6,33c4.2-8.8,1.6-18.3,4-28c2.4-9.7,0.3-22,1-32s-1.1-21.7-2-31c-0.9-9.3-2.3-20.8-4-29c-1.7-8.2-3.7-19.9-11-18
			c-10.4-21.3,16.8-30.4,30.8-41.2c13.9-10.9,32.5-19.5,40-37c7.4-17.5,19-32.8,27-50c8-17.2,19-32.6,27.3-49.7
			c-11.3,0.6-21.8,10.8-32.2,16.8c-10.5,5.9-20.5,12.9-31,19c-10.5,6-21.4,13-32,19c-10.6,6.1-20.4,13-31,19
			c-10.6,5.9-21,12.9-31.7,18.3c-3.9,11.4,11.4,13.8,9,26c-2.4,12.2-3.4,18.8-6,30c-2.6,11.2,2.9,22.1,3,33c0.1,10.9,3.2,22.1,4,33
			c0.8,10.9,2.8,21.9,3,33s2.5,22,3,33C562.2,49.6,566.7,31.7,567.9,22.9z"/>
	</g>
</g>
<g id="Layer_13_copy" class="st0">
	<g class="st1">
		<g>
			<path class="st42" d="M278.9,292.7c-6.6-0.2-13.4,0.2-20,0s-14.9-1.5-12,8c4,0,8,0,12,0c0,8.3,0,16.7,0,25c2.3,1,4.5-0.4,7,1
				c1-8.5,1.2-17.2,1-26C273.5,301.3,281.8,302,278.9,292.7z"/>
		</g>
		<g>
			<path class="st42" d="M402.9,305.7c-0.2-1.7,0.3-8.9,0-10c1-4.5-4.4-2.6-7-3c0,11,0,22,0,33c8.5,1,17.2,1.2,26,1
				c-0.6-2.9,1.6-5.1,1-8c-5.3-0.3-11.8,0.4-17,0C400.7,318.3,402.9,309.4,402.9,305.7z"/>
		</g>
		<g>
			<path class="st42" d="M469.9,300.7c4.3-12.5-12.8-7.2-21-8c-8.2-0.8-14.4,10.9-8.2,17.2c6.2,6.3,22.7-2.7,22.2,8.8
				c-7.3,0-14.7,0-22,0c-1.9,11.2,14.9,8.2,23,8c8.1-0.2,11-14.2,4.3-18.2c-6.7-4-22.2,2.6-22.2-7.8
				C453.9,300.7,461.9,300.7,469.9,300.7z"/>
		</g>
		<path class="st42" d="M320.9,292.7c-6.5-2.2-24.4-1.1-26,7s-1.5,23.5,6.3,26.7c7.8,3.2,23.2,0.5,25.3-7
			C328.7,311.9,328.7,295.4,320.9,292.7z M319.1,318c-3.5,3.5-12.9-1-17.2,0.8c1.8-4.3-2.7-13.7,0.8-17.2c3.5-3.5,12.8,1,17.2-0.8
			C318.1,305.1,322.6,314.5,319.1,318z"/>
		<path class="st42" d="M377.9,301.7c-3.5-11.5-22.8-11.5-30.3-6.3c-7.5,5.2-7,27.7,2.6,31s28,1.7,28.7-11.7
			C378.7,311.6,378.5,305.5,377.9,301.7z M370.9,312.7c-0.6,11.5-12.2,3.7-20,6c1.3-8.4-4.2-17.8,7-18
			C369.1,300.6,371.5,301.3,370.9,312.7z"/>
		<g>
			<path class="st42" d="M65.9,307.7c12.3,0,25.5-0.1,37,1c2,0,4,0,6,0c5.7-0.5,12.4-0.5,18,0c3.7,0,7.3,0,11,0
				c4.4-0.4,9.7-0.4,14,0c20.3-0.5,41.1,1.2,61-1c-7-1.8-16.2-1-24-1c-6.4,0-13.4-0.5-19-1c-46.7,0.3-94.3-1.1-140,2
				C41.9,307.7,53.9,307.7,65.9,307.7z"/>
		</g>
		<g>
			<path class="st42" d="M642.9,308.7c2.4-0.2,5.9-1,9-1c9.2-1.3,22.2,2.6,29-2c-56.7,1.9-116.7-2.9-173,2
				C551.9,309.6,598,308.7,642.9,308.7z"/>
		</g>
	</g>
	<g class="st1">
		<g>
			<path class="st43" d="M278.9,292.7c-6.6-0.2-13.4,0.2-20,0s-14.9-1.5-12,8c4,0,8,0,12,0c0,8.3,0,16.7,0,25c2.3,1,4.5-0.4,7,1
				c1-8.5,1.2-17.2,1-26C273.5,301.3,281.8,302,278.9,292.7z"/>
		</g>
		<g>
			<path class="st44" d="M402.9,305.7c-0.2-1.7,0.3-8.9,0-10c1-4.5-4.4-2.6-7-3c0,11,0,22,0,33c8.5,1,17.2,1.2,26,1
				c-0.6-2.9,1.6-5.1,1-8c-5.3-0.3-11.8,0.4-17,0C400.7,318.3,402.9,309.4,402.9,305.7z"/>
		</g>
		<g>
			<path class="st45" d="M469.9,300.7c4.3-12.5-12.8-7.2-21-8c-8.2-0.8-14.4,10.9-8.2,17.2c6.2,6.3,22.7-2.7,22.2,8.8
				c-7.3,0-14.7,0-22,0c-1.9,11.2,14.9,8.2,23,8c8.1-0.2,11-14.2,4.3-18.2c-6.7-4-22.2,2.6-22.2-7.8
				C453.9,300.7,461.9,300.7,469.9,300.7z"/>
		</g>
		<path class="st44" d="M320.9,292.7c-6.5-2.2-24.4-1.1-26,7s-1.5,23.5,6.3,26.7c7.8,3.2,23.2,0.5,25.3-7
			C328.7,311.9,328.7,295.4,320.9,292.7z M319.1,318c-3.5,3.5-12.9-1-17.2,0.8c1.8-4.3-2.7-13.7,0.8-17.2c3.5-3.5,12.8,1,17.2-0.8
			C318.1,305.1,322.6,314.5,319.1,318z"/>
		<path class="st46" d="M377.9,301.7c-3.5-11.5-22.8-11.5-30.3-6.3c-7.5,5.2-7,27.7,2.6,31s28,1.7,28.7-11.7
			C378.7,311.6,378.5,305.5,377.9,301.7z M370.9,312.7c-0.6,11.5-12.2,3.7-20,6c1.3-8.4-4.2-17.8,7-18
			C369.1,300.6,371.5,301.3,370.9,312.7z"/>
		<g>
			<path class="st47" d="M65.9,307.7c12.3,0,25.5-0.1,37,1c2,0,4,0,6,0c5.7-0.5,12.4-0.5,18,0c3.7,0,7.3,0,11,0
				c4.4-0.4,9.7-0.4,14,0c20.3-0.5,41.1,1.2,61-1c-7-1.8-16.2-1-24-1c-6.4,0-13.4-0.5-19-1c-46.7,0.3-94.3-1.1-140,2
				C41.9,307.7,53.9,307.7,65.9,307.7z"/>
		</g>
		<g>
			<path class="st48" d="M642.9,308.7c2.4-0.2,5.9-1,9-1c9.2-1.3,22.2,2.6,29-2c-56.7,1.9-116.7-2.9-173,2
				C551.9,309.6,598,308.7,642.9,308.7z"/>
		</g>
	</g>
	<g class="st1">
		<g>
			<path class="st49" d="M278.9,292.7c-6.6-0.2-13.4,0.2-20,0s-14.9-1.5-12,8c4,0,8,0,12,0c0,8.3,0,16.7,0,25c2.3,1,4.5-0.4,7,1
				c1-8.5,1.2-17.2,1-26C273.5,301.3,281.8,302,278.9,292.7z"/>
		</g>
		<g>
			<path class="st49" d="M402.9,305.7c-0.2-1.7,0.3-8.9,0-10c1-4.5-4.4-2.6-7-3c0,11,0,22,0,33c8.5,1,17.2,1.2,26,1
				c-0.6-2.9,1.6-5.1,1-8c-5.3-0.3-11.8,0.4-17,0C400.7,318.3,402.9,309.4,402.9,305.7z"/>
		</g>
		<g>
			<path class="st49" d="M469.9,300.7c4.3-12.5-12.8-7.2-21-8c-8.2-0.8-14.4,10.9-8.2,17.2c6.2,6.3,22.7-2.7,22.2,8.8
				c-7.3,0-14.7,0-22,0c-1.9,11.2,14.9,8.2,23,8c8.1-0.2,11-14.2,4.3-18.2c-6.7-4-22.2,2.6-22.2-7.8
				C453.9,300.7,461.9,300.7,469.9,300.7z"/>
		</g>
		<path class="st49" d="M320.9,292.7c-6.5-2.2-24.4-1.1-26,7s-1.5,23.5,6.3,26.7c7.8,3.2,23.2,0.5,25.3-7
			C328.7,311.9,328.7,295.4,320.9,292.7z M319.1,318c-3.5,3.5-12.9-1-17.2,0.8c1.8-4.3-2.7-13.7,0.8-17.2c3.5-3.5,12.8,1,17.2-0.8
			C318.1,305.1,322.6,314.5,319.1,318z"/>
		<path class="st49" d="M377.9,301.7c-3.5-11.5-22.8-11.5-30.3-6.3c-7.5,5.2-7,27.7,2.6,31s28,1.7,28.7-11.7
			C378.7,311.6,378.5,305.5,377.9,301.7z M370.9,312.7c-0.6,11.5-12.2,3.7-20,6c1.3-8.4-4.2-17.8,7-18
			C369.1,300.6,371.5,301.3,370.9,312.7z"/>
		<g>
			<path class="st49" d="M65.9,307.7c12.3,0,25.5-0.1,37,1c2,0,4,0,6,0c5.7-0.5,12.4-0.5,18,0c3.7,0,7.3,0,11,0
				c4.4-0.4,9.7-0.4,14,0c20.3-0.5,41.1,1.2,61-1c-7-1.8-16.2-1-24-1c-6.4,0-13.4-0.5-19-1c-46.7,0.3-94.3-1.1-140,2
				C41.9,307.7,53.9,307.7,65.9,307.7z"/>
		</g>
		<g>
			<path class="st49" d="M642.9,308.7c2.4-0.2,5.9-1,9-1c9.2-1.3,22.2,2.6,29-2c-56.7,1.9-116.7-2.9-173,2
				C551.9,309.6,598,308.7,642.9,308.7z"/>
		</g>
	</g>
</g>
<g id="Layer_13">
	<g>
		<path class="st50" d="M278.9,292.7c-6.6-0.2-13.4,0.2-20,0s-14.9-1.5-12,8c4,0,8,0,12,0c0,8.3,0,16.7,0,25c2.3,1,4.5-0.4,7,1
			c1-8.5,1.2-17.2,1-26C273.5,301.3,281.8,302,278.9,292.7z"/>
	</g>
	<g>
		<path class="st50" d="M402.9,305.7c-0.2-1.7,0.3-8.9,0-10c1-4.5-4.4-2.6-7-3c0,11,0,22,0,33c8.5,1,17.2,1.2,26,1
			c-0.6-2.9,1.6-5.1,1-8c-5.3-0.3-11.8,0.4-17,0C400.7,318.3,402.9,309.4,402.9,305.7z"/>
	</g>
	<g>
		<path class="st50" d="M469.9,300.7c4.3-12.5-12.8-7.2-21-8c-8.2-0.8-14.4,10.9-8.2,17.2c6.2,6.3,22.7-2.7,22.2,8.8
			c-7.3,0-14.7,0-22,0c-1.9,11.2,14.9,8.2,23,8c8.1-0.2,11-14.2,4.3-18.2c-6.7-4-22.2,2.6-22.2-7.8
			C453.9,300.7,461.9,300.7,469.9,300.7z"/>
	</g>
	<path class="st50" d="M320.9,292.7c-6.5-2.2-24.4-1.1-26,7s-1.5,23.5,6.3,26.7c7.8,3.2,23.2,0.5,25.3-7
		C328.7,311.9,328.7,295.4,320.9,292.7z M319.1,318c-3.5,3.5-12.9-1-17.2,0.8c1.8-4.3-2.7-13.7,0.8-17.2c3.5-3.5,12.8,1,17.2-0.8
		C318.1,305.1,322.6,314.5,319.1,318z"/>
	<path class="st50" d="M377.9,301.7c-3.5-11.5-22.8-11.5-30.3-6.3c-7.5,5.2-7,27.7,2.6,31s28,1.7,28.7-11.7
		C378.7,311.6,378.5,305.5,377.9,301.7z M370.9,312.7c-0.6,11.5-12.2,3.7-20,6c1.3-8.4-4.2-17.8,7-18
		C369.1,300.6,371.5,301.3,370.9,312.7z"/>
	<g>
		<path class="st50" d="M65.9,307.7c12.3,0,25.5-0.1,37,1c2,0,4,0,6,0c5.7-0.5,12.4-0.5,18,0c3.7,0,7.3,0,11,0c4.4-0.4,9.7-0.4,14,0
			c20.3-0.5,41.1,1.2,61-1c-7-1.8-16.2-1-24-1c-6.4,0-13.4-0.5-19-1c-46.7,0.3-94.3-1.1-140,2C41.9,307.7,53.9,307.7,65.9,307.7z"/>
	</g>
	<g>
		<path class="st50" d="M642.9,308.7c2.4-0.2,5.9-1,9-1c9.2-1.3,22.2,2.6,29-2c-56.7,1.9-116.7-2.9-173,2
			C551.9,309.6,598,308.7,642.9,308.7z"/>
	</g>
</g>
<g id="Layer_4" class="st51">
	<polygon class="st52" points="681.9,157.9 53.3,157.9 51.3,135.9 679.9,135.9 	"/>
	<rect x="44.5" y="274.7" class="st52" width="645.7" height="44.3"/>
	<rect x="44.5" y="-99.9" class="st52" width="322.1" height="418.8"/>
</g>
<g id="Layer_2">
	<g>
		<path class="st53" d="M251.8,198.4c-3.6-6.1-4.2-7.4-7.7-14.2c-1.9-3.7-2.4-6.2-4.2-9.8c-1.7,3.1-2.5,4.1-4.4,7.6
			c-2.1,3.9-7.8,16.7-12.8,27.7c-2.6,5.6-8.2,18-19,44.9c-1.2,3.1-2.5,6-4,9c-1.3,4.5-10,7.3-12.7,11c10.9-2,22.7-0.5,34-1
			c3.9-12.7,12.9-30.6,17.4-43.1c6.7,2.1,2.5,10.5,3.3,16.2c10.4,0.9,21.2-0.5,32.8-0.1c3.7,10.4,9.5,28.2,14.1,28.2
			c4.4,0,15.7-0.5,19.4-0.2c4.3,0,8.7,0,13,0c-3-1.6-4.2-5.4-6-8c-10.6-15.8-16.2-34.9-25-52c-3.4-6.6-6.8-12.9-11-19
			c-1.1-1.5-2-3.4-3-5c-3.9-6.5-6.9-12.3-11.4-18.4s-14.1-17.5-15.2-14.5c-1.1,2-3.2,6.5-5.1,9.2c-2.3,3.2-3.3,5.6-3.3,5.6
			s2.1,5.6,3,7c4.8,8.2,5.4,9.8,9.4,17.7c4.9,9.7,15.4,31.5,14.4,31.5c-7.4,0-15.9,0.4-19.9,0.4c-4.5-0.1-8.6,0.4-9,0
			c0,0,2.6-8.5,6.5-17.3C247.3,207.4,249.6,203,251.8,198.4z"/>
		<path class="st54" d="M251.8,198.4c-1.1-1.9-2.3-3.9-3.3-5.8c-1.1-2-2.1-4-3.1-5.9c-1-2-2.1-3.9-2.9-6c-0.8-2.1-1.6-4.2-2.5-6.2
			l0,0c-1,1.8-2.1,3.5-3.1,5.3c-1,1.8-1.9,3.6-2.8,5.4c-1.8,3.7-3.4,7.4-5.1,11.1c-3.4,7.4-6.8,14.8-10.1,22.3
			c-3.3,7.5-6.4,15-9.5,22.6l-4.6,11.4c-1.5,3.8-3,7.6-4.9,11.2l0,0c-0.4,1.4-1.5,2.5-2.5,3.4c-1.1,0.9-2.3,1.7-3.5,2.5
			c-1.2,0.8-2.4,1.5-3.6,2.3c-1.2,0.8-2.3,1.7-3.2,2.8l-0.1-0.2c5.6-1.1,11.3-1.2,17-1.1c5.7,0.1,11.4,0.3,17,0.1l-0.1,0.1
			c1.2-3.7,2.5-7.3,4-10.9c1.4-3.6,3-7.2,4.5-10.7c3.1-7.1,6.3-14.2,8.9-21.5l0.1-0.2l0.2,0.1l1.1,0.4c0.3,0.2,0.7,0.4,1,0.6
			c0.3,0.3,0.6,0.5,0.8,0.9c0.2,0.3,0.4,0.6,0.6,1c0.6,1.4,0.6,3,0.5,4.5c-0.1,1.5-0.3,3-0.4,4.5c-0.1,1.5-0.3,3,0,4.4l-0.2-0.2
			c5.4,0.5,10.9,0.3,16.4,0.1c5.5-0.2,11-0.4,16.4-0.3l0.2,0l0.1,0.1c1.4,4.1,2.8,8.1,4.4,12.1c1.5,4,3.1,8,5.3,11.7
			c0.5,0.9,1.1,1.8,1.8,2.6c0.7,0.8,1.5,1.6,2.5,1.6c2.1,0,4.3-0.1,6.4-0.1c4.3-0.1,8.6-0.3,12.9,0l0,0l13,0l-0.1,0.4
			c-1.3-0.7-2.3-1.9-3.2-3.1c-0.8-1.2-1.5-2.5-2.2-3.8c-0.7-1.2-1.6-2.4-2.3-3.7c-0.8-1.2-1.5-2.5-2.2-3.7
			c-2.9-5.1-5.4-10.3-7.7-15.6c-4.7-10.6-8.8-21.5-14.2-31.8c-5.1-10.5-12-19.8-17.6-30c-1.5-2.5-2.9-5-4.5-7.4
			c-1.6-2.4-3.3-4.7-5.1-7c-1.8-2.3-3.7-4.5-5.7-6.6c-1-1.1-2-2.1-3.1-3c-0.6-0.5-1.1-0.9-1.7-1.3c-0.3-0.2-0.6-0.3-1-0.4
			c-0.3-0.1-0.6,0.1-0.8,0.4l0,0l0,0c-1.3,2.5-2.5,5.1-4,7.5c-0.7,1.2-1.6,2.4-2.4,3.6c-0.8,1.2-1.5,2.4-2,3.7l0-0.1
			c0.7,1.8,1.4,3.5,2.1,5.3c0.4,0.9,0.8,1.7,1.3,2.5l1.4,2.5c1.9,3.3,3.6,6.7,5.3,10.1c3.4,6.8,6.8,13.6,10,20.5
			c1.6,3.4,3.2,6.9,4.7,10.4c0.4,0.9,0.7,1.7,1.1,2.6c0.2,0.4,0.3,0.9,0.5,1.3c0.1,0.2,0.1,0.5,0.2,0.7c0,0.1,0,0.1,0,0.2
			c0,0.1-0.1,0.1-0.2,0.1l-0.4,0c-1.9,0-3.8,0-5.7,0.1l-11.4,0.3c-1.9,0-3.8,0-5.7,0l-2.8,0.1l-1.4,0c-0.5,0-1,0-1.4-0.2l0,0l0,0
			c1.7-5.3,3.6-10.6,5.8-15.7c0.5-1.3,1.2-2.5,1.8-3.8l1.8-3.8L251.8,198.4z M251.8,198.4l-3.6,7.6l-1.8,3.8
			c-0.6,1.3-1.2,2.5-1.8,3.8c-2.2,5.1-4.1,10.4-5.8,15.7l0,0c0.4,0.2,0.9,0.1,1.4,0.2l1.4,0l2.8-0.1c1.9-0.1,3.8,0,5.7-0.1l11.4-0.3
			c1.9,0,3.8-0.1,5.7-0.1l0.4,0c0.1,0,0.1,0,0.1,0c0,0,0-0.1,0-0.2c0-0.2-0.1-0.5-0.2-0.7c-0.1-0.4-0.3-0.9-0.5-1.3
			c-0.3-0.9-0.7-1.8-1.1-2.6c-1.5-3.5-3.1-6.9-4.8-10.4c-3.3-6.9-6.6-13.7-10.1-20.5c-1.7-3.4-3.4-6.8-5.3-10.1l-1.4-2.5
			c-0.5-0.8-0.9-1.7-1.3-2.5c-0.8-1.7-1.5-3.5-2.2-5.3l0,0l0,0c0.6-1.3,1.3-2.6,2-3.8c0.7-1.2,1.6-2.3,2.3-3.6c1.5-2.4,2.6-5,4-7.5
			l0,0l0.1-0.3c0.1-0.1,0.2-0.2,0.2-0.2c0.2-0.1,0.4-0.1,0.6-0.1c0.4,0.1,0.7,0.2,1,0.4c0.6,0.4,1.2,0.8,1.8,1.3c1.1,1,2.1,2,3.1,3
			c2,2.1,3.9,4.3,5.7,6.6c1.8,2.3,3.6,4.6,5.2,7c1.6,2.4,3.1,4.9,4.6,7.4c5.6,10.2,12.6,19.5,17.7,30c5.4,10.3,9.5,21.2,14.3,31.8
			c2.4,5.3,4.9,10.5,7.7,15.6c0.7,1.2,1.5,2.5,2.2,3.7c0.8,1.2,1.6,2.4,2.3,3.7c0.7,1.3,1.4,2.6,2.2,3.8c0.8,1.2,1.8,2.3,3,2.9
			l0.8,0.4l-0.9,0l-13,0h0l0,0c-4.3-0.2-8.6,0-12.9,0.1c-2.1,0.1-4.3,0.1-6.5,0.1c-0.6,0-1.2-0.3-1.6-0.6c-0.5-0.3-0.8-0.7-1.2-1.1
			c-0.7-0.8-1.3-1.8-1.8-2.7c-2.1-3.8-3.7-7.8-5.3-11.8c-1.5-4-2.9-8.1-4.3-12.1l0.2,0.1c-5.5-0.2-10.9,0.1-16.4,0.3
			c-5.5,0.2-11,0.3-16.4-0.2l-0.2,0l0-0.2c-0.2-1.5-0.1-3,0.1-4.5c0.2-1.5,0.4-3,0.5-4.5c0.1-1.5,0.1-3-0.5-4.3
			c-0.1-0.4-0.4-0.6-0.5-0.9c-0.2-0.3-0.5-0.5-0.7-0.8c-0.3-0.2-0.6-0.4-0.9-0.6l-1-0.4l0.2-0.1c-2.7,7.3-5.9,14.4-9,21.5
			c-1.5,3.6-3.1,7.1-4.5,10.7c-1.4,3.6-2.8,7.2-4,10.9l0,0.1l-0.1,0c-5.7,0.2-11.4,0-17-0.1c-5.7-0.1-11.4,0-16.9,1.1l-0.3,0.1
			l0.2-0.2c0.9-1.1,2.1-2,3.2-2.8c1.2-0.8,2.4-1.6,3.6-2.3c1.2-0.8,2.4-1.6,3.4-2.5c1.1-0.9,2-2,2.5-3.3l0,0l0,0
			c1.9-3.6,3.4-7.4,4.9-11.2l4.6-11.3c3.1-7.5,6.3-15.1,9.6-22.5c3.3-7.5,6.8-14.9,10.1-22.3c1.7-3.7,3.4-7.4,5.2-11.1
			c0.9-1.8,1.8-3.7,2.8-5.4c1-1.8,2.1-3.5,3.1-5.3l0,0l0,0c1,2,1.7,4.1,2.5,6.2c0.8,2.1,1.9,4.1,2.9,6c1,2,2,4,3.1,5.9
			C249.5,194.6,250.6,196.5,251.8,198.4z"/>
	</g>
	<g>
		<path class="st55" d="M314.9,197.7c0.1,10.1-0.4,28.9-0.4,29.5c0,13.8,0.6,22.1,5.4,32.5c8.3,14.5,25.3,15.8,41,15s36.4,3,50-6
			c2.8-2.7,2.8-16.9,2-22c-3.7,0.2-10.7,0.2-19,1c-5.7,0.2-21.7-0.3-33,0c-12.3,0.3-20.4-4.3-20-15s-0.1-22.2-0.6-31.1
			c-0.5-8.9-0.7-20,3.4-21.2c11.1-0.2,24.1-0.1,34.2,0.2c8.5,0.3,22.7-0.6,31.4,1c2-4.7,3.6-9.1,5.4-13.5s2.2-6.2,4.2-10.5
			c0.3,0.7-2.5,0.9-2,1c-7.7-2-16.8-1.4-25-1s-17.3-0.2-25,0s-19,0.6-26.6,0.6c-12.2-0.5-20.3-1.9-22.7,0.1
			c-2.6,2.1-3.6,7.5-3.1,16.3C314.7,184.5,314.3,191.4,314.9,197.7z"/>
		<path class="st54" d="M314.9,197.7l-0.2,15.7c-0.1,5.2-0.2,10.5-0.2,15.7c0,5.2,0.1,10.5,0.9,15.6c0.7,5.2,2.3,10.2,4.5,14.9l0,0
			c2,3.5,4.8,6.6,8.2,8.8c3.3,2.3,7.2,3.8,11.1,4.7c7.9,1.9,16.1,1.7,24.2,1.3c8.1-0.2,16.2,0.4,24.3,0.1c4-0.2,8.1-0.5,12-1.4
			c3.9-0.9,7.8-2.3,11.1-4.6l0,0c0.6-0.6,0.9-1.5,1.2-2.4c0.1-0.4,0.2-0.9,0.3-1.3l0.3-1.4c0.3-1.8,0.4-3.7,0.5-5.6
			c0.1-1.9,0.1-3.7,0-5.6c-0.1-1.9-0.2-3.7-0.4-5.6l0.2,0.1c-5.6,0.2-11.2,0.3-16.7,0.8l-2.1,0.2c-0.7,0-1.4,0-2.1,0.1l-4.2,0
			l-8.4-0.1c-5.6-0.1-11.2-0.1-16.8,0c-2.8,0.1-5.6,0.1-8.4-0.3c-2.8-0.4-5.5-1.3-7.9-2.8c-2.4-1.5-4.2-4-5-6.7
			c-0.8-2.7-0.6-5.6-0.5-8.4c0.1-5.6,0-11.2-0.2-16.8c-0.1-2.8-0.2-5.6-0.4-8.4c-0.2-2.8-0.3-5.6-0.4-8.4c-0.1-2.8,0-5.6,0.3-8.4
			c0.2-1.4,0.4-2.8,0.8-4.1c0.2-0.7,0.5-1.3,0.9-1.9c0.4-0.6,1-1.1,1.8-1.3l0,0l0,0c11-0.2,21.9-0.1,32.9,0.2c5.5,0.2,10.9,0,16.4,0
			c5.5,0,11,0.1,16.4,1l-0.2,0.1l4.8-12c0.8-2,1.6-4,2.3-6c0.7-2,1.5-4,2.4-6l0.1-0.2l0.1,0.2c0.1,0.1,0,0.4-0.1,0.4
			c-0.1,0.1-0.2,0.1-0.3,0.2c-0.2,0.1-0.4,0.2-0.6,0.2l-0.6,0.1l-0.3,0.1c0,0-0.1,0-0.1,0c0,0,0,0.1,0-0.1c-0.1-0.2,0-0.1,0-0.1
			l-0.1,0.2c-5.6-1.4-11.5-1.5-17.3-1.4c-2.9,0.1-5.8,0.3-8.7,0.4c-2.9,0.1-5.8,0.1-8.7,0.1c-11.6-0.4-23.3,0.1-34.9,0.3l-4.4,0.1
			l-2.2,0c-0.7,0-1.5-0.1-2.2-0.1c-2.9-0.2-5.8-0.4-8.7-0.6c-2.9-0.2-5.8-0.4-8.7-0.2c-0.7,0-1.4,0.2-2.1,0.4
			c-0.7,0.2-1.3,0.6-1.8,1.2c-1,1.1-1.5,2.5-1.9,3.9c-0.7,2.8-0.8,5.8-0.8,8.7c0.1,2.9,0.2,5.8,0.2,8.7
			C314.6,186.1,314.3,191.9,314.9,197.7z M314.9,197.7c-0.5-5.8-0.3-11.6-0.3-17.5c0-2.9-0.1-5.8-0.2-8.7c0-2.9,0.1-5.8,0.8-8.7
			c0.4-1.4,0.9-2.8,1.9-3.9c0.5-0.6,1.1-1,1.8-1.2c0.7-0.2,1.4-0.3,2.2-0.4c2.9-0.2,5.8,0.1,8.7,0.2c2.9,0.2,5.8,0.4,8.7,0.5
			c0.7,0,1.5,0.1,2.2,0.1l2.2-0.1l4.4-0.1c11.6-0.2,23.3-0.7,34.9-0.3c2.9,0,5.8,0,8.7-0.1c2.9-0.1,5.8-0.3,8.7-0.4
			c5.8-0.2,11.7-0.1,17.4,1.3l-0.1,0.2c0,0-0.1,0.1-0.2-0.2c0-0.1,0.1-0.1,0.1-0.1c0,0,0,0,0.1,0c0.1,0,0.1,0,0.2-0.1l0.3-0.1
			l0.6-0.1c0.2-0.1,0.4-0.1,0.6-0.2c0.2-0.1,0.3-0.2,0.3-0.3l0.2,0c-0.9,2-1.7,4-2.4,6c-0.7,2-1.5,4-2.3,6l-4.8,12l0,0.1l-0.1,0
			c-5.4-0.9-10.9-1-16.3-1c-5.5,0-10.9,0.2-16.4,0c-10.9-0.3-21.9-0.3-32.8-0.2l0.1,0c-1.3,0.4-2,1.7-2.4,3
			c-0.4,1.3-0.7,2.7-0.8,4.1c-0.3,2.8-0.3,5.6-0.2,8.3c0.1,2.8,0.3,5.6,0.4,8.4c0.2,2.8,0.3,5.6,0.4,8.4c0.2,5.6,0.3,11.2,0.2,16.8
			c-0.1,2.8-0.3,5.6,0.5,8.3c0.8,2.6,2.5,5,4.8,6.5c2.3,1.5,5,2.4,7.7,2.8c2.7,0.5,5.5,0.4,8.3,0.3c5.6-0.1,11.2,0,16.8,0l8.4,0.1
			l4.2,0c0.7,0,1.4,0,2.1-0.1l2.1-0.2c5.6-0.5,11.2-0.6,16.8-0.8l0.2,0l0,0.1c0.3,1.9,0.4,3.7,0.4,5.6c0.1,1.9,0,3.7-0.1,5.6
			c-0.1,1.9-0.2,3.7-0.5,5.6l-0.3,1.4c-0.1,0.5-0.2,0.9-0.4,1.4c-0.3,0.9-0.6,1.8-1.3,2.5l0,0l0,0c-3.4,2.3-7.3,3.7-11.2,4.6
			c-4,0.9-8,1.3-12.1,1.4c-8.1,0.3-16.2-0.3-24.3-0.1c-8.1,0.4-16.3,0.6-24.2-1.3c-3.9-1-7.8-2.5-11.1-4.8c-3.4-2.3-6.2-5.4-8.2-8.9
			l0,0l0,0c-2.2-4.7-3.8-9.8-4.5-15c-0.7-5.2-0.8-10.4-0.9-15.7c0-5.2,0.1-10.5,0.2-15.7L314.9,197.7z"/>
	</g>
	<g>
		<path class="st42" d="M502.2,228.4c0.5-0.2,1-0.4,1.4-0.8c1.9-1.9,0.5-6.3,2.4-10.5c1.3-2.8,2.5-5.9,3.6-8.5
			c0.5-1.3,3-4.4,3.1-4.8c-3.3-1.8-7.2-1.9-11.2,0.2c-3.5,2.6-6.6,5-11.3,4.9s-13.6,0.1-18.5,0.1c-4.6,0-13.5-0.3-18.6-0.3
			c-1.9,0,2.1-21.9,3-27.6c9.3-0.1,32.9-0.1,41-0.3c4.5-0.1,10.9,0.1,13.7,0.1c1.5,0,5.3,0.5,6.7,0.1c11.3-13.8,9.8-11.6,21.8-24.6
			c-14.2,2.2-24,1.4-32.1,1.6c-27,0.5-33.2-1.1-41.9,0.1c-9.3,0.9-18.1,0-22.1-0.1c-4-0.2-10.4-0.8-13.7,0.4
			c-3.4,1.2-4.7,9.5-5.4,11.2c-4.9,12,5,10.2,5.1,11.7c0.2,3.4-1.1,14.1-1.6,20.3c-0.3,2.8-2.2,5.7-3.1,7c0.4,6,6.2,8.3,10.9,11.4
			c-2.6,2.6-8.7,1.8-8.9,6.6c-1.2,7.2,2,16.1,2.1,23.4c0,10.2-1.6,17.5-6.2,25c2-1.4,4.6-1,7-1c2.2,0,4.5,0.8,6,1c3,0.1,6,0,9,0
			c7.3-0.7,16-1,24-1c4.3,0,8.7,0,13,0c17.1,0,21.9-0.4,32,0c4.8,0.2,8.7,0.4,11.1,0.6c0.9-0.9,1.9-1.8,2.8-2.7
			c-0.5-1.1-1.2-2.3-1.8-3.5c-0.7-1.2-1.4-2.4-2.1-3.4c-1.2-6-1.2-12.1,0-18c-4.6,0.5-9.5,1.6-14,2c-5.4,0.5-12.8,0.2-18,0
			s-13.1,0.2-18.6,0.3c-5.3,0.1-15.7,0.9-16.4-1.3c-1.6-5.4-3.6-12.2-2-18c8.7,0,17.3,0,26,0C483.5,229.9,497.5,229.9,502.2,228.4z"
			/>
		<path class="st54" d="M502.2,228.4c1.1-0.3,2-1.3,2.2-2.4c0.3-1.1,0.3-2.3,0.4-3.4c0.1-1.1,0.2-2.3,0.5-3.4
			c0.3-1.1,0.7-2.2,1.2-3.2l2.7-6.3c0.7-2.2,2.4-3.9,3.5-5.9l0,0c-1.7-0.9-3.7-1.4-5.6-1.3c-1.9,0.1-3.9,0.6-5.6,1.5l0,0
			c-2.6,1.9-5.2,3.9-8.5,4.6c-1.6,0.4-3.2,0.2-4.8,0.3l-4.9,0l-9.7,0.1c-3.2,0-6.5-0.1-9.7-0.1l-9.7-0.1c-0.4,0-0.8,0-1.2-0.1
			c-0.4-0.3-0.3-0.8-0.4-1.2c-0.1-0.8,0-1.6,0-2.4c0.1-1.6,0.3-3.2,0.5-4.8c0.8-6.4,1.9-12.8,3-19.2l0-0.1l0.1,0l30.8-0.3l7.7-0.1
			c2.6,0,5.1-0.1,7.7,0l7.7,0.1c1.3,0,2.6,0.1,3.8,0.2c1.3,0.1,2.6,0.2,3.8-0.1l-0.1,0c3.5-4.2,6.9-8.5,10.6-12.6l11.2-12l0.1,0.2
			c-6.9,1.1-13.8,1.6-20.8,1.6l-10.4,0c-3.5,0-6.9,0.1-10.4,0.1c-6.9,0-13.9-0.1-20.8-0.4c-3.5-0.1-6.9-0.1-10.4,0.3
			c-3.4,0.4-6.9,0.6-10.4,0.6c-7,0-13.9-0.8-20.8-0.9c-1.7,0-3.5,0.1-5.1,0.5c-1.7,0.3-2.7,1.9-3.4,3.4c-0.7,1.5-1.2,3.2-1.7,4.9
			c-0.2,0.8-0.4,1.7-0.7,2.5c-0.3,0.9-0.6,1.6-0.9,2.5c-0.5,1.6-0.8,3.4-0.5,5c0.2,0.8,0.6,1.6,1.2,2.1c0.6,0.6,1.4,0.9,2.2,1.2
			c0.8,0.3,1.6,0.4,2.5,0.8c0.1,0.1,0.2,0.1,0.3,0.3c0,0.1,0.1,0.2,0.1,0.3l0,0.2l0,0.7c0,0.4,0,0.9,0,1.3c-0.1,1.7-0.2,3.5-0.4,5.2
			c-0.3,3.5-0.7,6.9-1,10.4l-0.3,2.6c-0.1,0.9-0.3,1.8-0.6,2.6c-0.6,1.7-1.5,3.2-2.5,4.6l0-0.1c0.1,1.3,0.5,2.7,1.2,3.8
			c0.7,1.1,1.7,2.1,2.7,3c2.1,1.7,4.6,2.9,6.9,4.4l0.2,0.2l-0.2,0.2c-0.7,0.7-1.7,1.2-2.6,1.5c-0.9,0.4-1.9,0.6-2.8,1
			c-0.9,0.3-1.8,0.8-2.4,1.4c-0.7,0.7-1,1.6-1,2.5l0,0l0,0c-0.6,4.1,0,8.2,0.7,12.3c0.7,4.1,1.5,8.2,1.4,12.4
			c-0.1,4.1-0.4,8.3-1.4,12.4c-1,4-2.7,7.9-4.8,11.5l-0.3-0.2c1-0.7,2.1-1,3.2-1c1.1-0.1,2.2,0,3.3,0c1.1,0,2.2,0.1,3.3,0.3
			c1.1,0.2,2.2,0.5,3.2,0.7l0,0l9,0l0,0c6.7-0.6,13.3-0.9,20-1l20,0l20-0.2c3.3,0,6.7,0.1,10,0.2l10,0.6l-0.1,0l2.8-2.7l0,0.1
			l-1.8-3.5l-2-3.4l0,0l0,0c-1.2-5.9-1.2-12.1,0-18l0.1,0.1c-3.6,0.4-7.1,1.1-10.6,1.6c-3.5,0.5-7.1,0.7-10.7,0.6
			c-3.6,0-7.2-0.1-10.7-0.3c-3.6-0.1-7.2,0-10.7,0.1l-10.7,0.2c-3.6,0.1-7.2,0.3-10.7-0.1c-0.9-0.1-1.8-0.3-2.5-0.9
			c-0.2-0.2-0.3-0.4-0.3-0.6l-0.2-0.6l-0.4-1.3c-0.5-1.7-0.9-3.5-1.3-5.2c-0.7-3.5-1-7.2-0.1-10.7l0,0l0,0l23.9,0c4,0,8,0,11.9-0.2
			c2-0.1,4-0.2,6-0.4C498.3,229.1,500.3,228.9,502.2,228.4z M502.2,228.4c-1.9,0.6-3.9,0.8-5.9,1c-2,0.2-4,0.3-6,0.4
			c-4,0.2-8,0.2-11.9,0.2l-23.9,0l0,0c-0.9,3.5-0.6,7.1,0.1,10.6c0.3,1.8,0.8,3.5,1.3,5.2l0.4,1.3c0.2,0.4,0.2,0.9,0.5,1.2
			c0.7,0.6,1.6,0.7,2.5,0.8c3.6,0.4,7.1,0.2,10.7,0.1l10.7-0.3c3.6-0.1,7.2-0.2,10.7-0.1c3.6,0.1,7.2,0.2,10.7,0.2
			c3.6,0,7.2-0.1,10.7-0.7c3.5-0.5,7.1-1.2,10.6-1.6l0.1,0l0,0.1c-1.2,5.9-1.2,12.1,0,18l0,0l2.1,3.4l1.9,3.5l0,0.1l-0.1,0.1
			l-2.8,2.8l0,0l-0.1,0l-10-0.6c-3.3-0.2-6.7-0.2-10-0.2l-20,0.2l-20,0c-6.7,0.1-13.3,0.4-20,1l0,0h0l-9,0h0l0,0
			c-1.1-0.2-2.2-0.5-3.3-0.7c-1.1-0.2-2.2-0.3-3.3-0.3c-1.1,0-2.2-0.1-3.3,0c-1.1,0.1-2.2,0.4-3,1l-0.7,0.5l0.4-0.7
			c2.1-3.5,3.8-7.4,4.8-11.4c1-4,1.3-8.2,1.4-12.3c0.1-4.1-0.7-8.2-1.4-12.3c-0.7-4.1-1.3-8.3-0.7-12.4l0,0c0-1,0.4-2.1,1.2-2.8
			c0.7-0.7,1.7-1.2,2.6-1.5c0.9-0.4,1.9-0.6,2.8-1c0.9-0.4,1.8-0.8,2.4-1.4l0,0.4c-2.3-1.5-4.8-2.7-7-4.4c-1.1-0.9-2.1-1.9-2.8-3.1
			c-0.7-1.2-1.1-2.6-1.2-4l0-0.1l0-0.1c1-1.4,1.8-2.9,2.4-4.5c0.3-0.8,0.5-1.6,0.6-2.5l0.3-2.6c0.3-3.5,0.7-6.9,1-10.4
			c0.1-1.7,0.3-3.5,0.4-5.2c0-0.4,0-0.9,0-1.3l0-0.6l0-0.2c0,0,0,0,0,0c0,0-0.1-0.1-0.2-0.1c-0.7-0.3-1.6-0.4-2.4-0.7
			c-0.8-0.3-1.7-0.7-2.3-1.3c-0.7-0.6-1.1-1.5-1.3-2.4c-0.4-1.8,0-3.6,0.5-5.2c0.2-0.8,0.6-1.7,0.9-2.5c0.2-0.8,0.5-1.7,0.7-2.5
			c0.5-1.7,1-3.4,1.7-4.9c0.4-0.8,0.8-1.6,1.4-2.3c0.3-0.3,0.6-0.6,1-0.9c0.4-0.2,0.8-0.4,1.3-0.5c1.7-0.4,3.5-0.5,5.2-0.5
			c7,0.1,13.9,0.9,20.8,0.9c3.5,0,6.9-0.1,10.4-0.6c3.5-0.4,7-0.3,10.4-0.2c6.9,0.2,13.9,0.4,20.8,0.4c3.5,0,6.9-0.1,10.4-0.1
			l10.4,0c6.9,0,13.9-0.5,20.7-1.6l0.4-0.1l-0.3,0.3l-11.2,12c-3.7,4-7.1,8.3-10.6,12.5l0,0l0,0c-1.3,0.3-2.6,0.1-3.9,0.1
			c-1.3-0.1-2.5-0.2-3.8-0.2l-7.7-0.1c-2.6-0.1-5.1,0-7.7,0l-7.7,0.1l-30.8,0.2l0.1-0.1c-1,6.4-2.2,12.8-3,19.2
			c-0.2,1.6-0.4,3.2-0.5,4.8c0,0.8-0.1,1.6,0,2.4c0,0.4,0.1,0.9,0.3,1.1c0.3,0.1,0.8,0,1.2,0l9.7,0.1c3.2,0,6.5,0.1,9.7,0.1l9.7-0.1
			l4.9,0c1.6,0,3.2,0.1,4.8-0.3c3.2-0.7,5.9-2.7,8.4-4.6l0,0c1.7-0.9,3.6-1.5,5.6-1.5c2-0.1,3.9,0.4,5.6,1.4l0,0l0,0
			c-1.1,2-2.8,3.7-3.6,5.9l-2.7,6.3c-0.4,1.1-0.9,2.1-1.2,3.2c-0.3,1.1-0.4,2.3-0.5,3.4c-0.1,1.1-0.1,2.3-0.4,3.4
			C504.2,227.1,503.3,228.1,502.2,228.4z"/>
	</g>
	<g>
		<path class="st42" d="M533.9,274.5c2.7,0.1,6,0.2,10,0l0,0c4.7,0,9.3,0,14,0c9.4-0.9,20.6-0.9,30,0c18.2,0,47.7,3.4,49-21
			c0.2-3,0.8-6.7,1-9c0-7.8,1.1-13.3,0.4-18.8c-0.7-5.3-4.3-8.4-8.6-11.9c-2.5-2.1-5.9-3.2-9-4c-14.3-3.5-31,0.5-46.2-0.9
			c-3.8-0.3-10.1-1-10.7-9.3c-1-13.1,3.2-20,14.1-19s25.6,0.4,36.5,0.3c17.6-0.2,18.3-15,28.5-24.4c-19.1,0.9-37.4-0.7-56,1
			c-2.3,0.2-4.7,0.1-7,0c-1.6-0.1-4.1-1-5-1c-7.9,0.7-23.8-1.3-28.2,5.8c-4.4,7-11.1,14.7-10.8,23.2c0,0.5,0,1.5,0,2
			c0,4.7-0.1,9.3,0,14c0.6,30,32.7,28.4,54.4,28.4c7.9,0,18.5-1.8,19.6,2.6c4.4,18-15.5,16-42,16c-16.3,0-21.5,1.3-30,15
			c-0.8,1.4-1.9,5.5-5.5,7.3"/>
		<path class="st54" d="M533.9,274.5c2,0.1,4,0.1,6,0.1c2,0,4-0.1,6-0.1l12,0l0,0c5-0.5,10-0.7,15-0.7c5,0,10,0.2,15,0.7l0,0
			c5.8,0,11.5,0.3,17.3,0.1c5.7-0.2,11.5-0.7,17-2.4c2.7-0.9,5.3-2.2,7.6-3.9c2.3-1.8,4.1-4.1,5.2-6.7c1.2-2.6,1.6-5.5,1.8-8.4
			c0.2-2.9,0.7-5.7,1-8.6l0,0c0-4.4,0.4-8.8,0.6-13.1c0.1-2.2,0-4.4-0.3-6.5c-0.4-2.1-1.5-4.1-2.8-5.8c-1.4-1.7-3-3.1-4.7-4.5
			c-1.6-1.5-3.5-2.6-5.5-3.4c-2-0.8-4.2-1.3-6.3-1.7c-1.1-0.2-2.2-0.3-3.2-0.5c-1.1-0.1-2.2-0.2-3.3-0.3c-8.7-0.6-17.5,0.4-26.2,0.7
			c-4.4,0.1-8.8,0.1-13.1-0.4c-2.2-0.3-4.4-0.9-6.1-2.4c-1.7-1.5-2.6-3.7-2.9-5.8c-0.3-2.2-0.3-4.4-0.2-6.6c0.1-2.2,0.4-4.4,1.2-6.5
			c0.8-2.1,2.1-4,3.9-5.3c1.8-1.3,4.1-1.8,6.3-1.9c2.2-0.1,4.4,0.2,6.6,0.3c2.2,0.1,4.4,0.2,6.6,0.3c4.4,0.1,8.7,0,13.1,0l13.1-0.3
			c4.3,0,8.7-1.2,12.2-3.8c1.7-1.4,3.2-2.9,4.5-4.7c1.3-1.7,2.5-3.6,3.6-5.4c2.3-3.7,4.8-7.4,8-10.4l0.2,0.4
			c-11.4,0.5-22.7,0.2-34.1,0.2c-5.7,0-11.4,0.1-17,0.4c-2.8,0.1-5.7,0.6-8.5,0.5l-2.1-0.1c-0.7,0-1.4,0-2.1-0.1
			c-1.4-0.2-2.8-0.7-4.1-0.9l0,0c-5.4,0.4-10.9,0-16.3,0.6c-2.7,0.3-5.4,0.7-7.8,1.8c-1.2,0.6-2.4,1.3-3.3,2.3
			c-0.9,1-1.5,2.2-2.3,3.3c-3,4.5-6.3,8.9-8.1,14c-0.5,1.3-0.8,2.6-1,3.9c-0.2,1.3-0.1,2.7-0.2,4l0,8.1l0,4.1c0,1.4,0,2.7,0.1,4.1
			c0.2,2.7,0.6,5.4,1.4,8c0.8,2.6,2.1,5,3.8,7.1c1.7,2.1,3.8,3.9,6.1,5.3c4.6,2.8,10,4.3,15.3,5.2c5.4,0.9,10.8,1.1,16.2,1.2
			c2.7,0,5.4,0,8.1,0c2.7,0,5.4,0,8.1-0.1c2.7-0.1,5.4-0.3,8.2-0.2c1.4,0.1,2.7,0.2,4,0.6c0.6,0.2,1.3,0.5,1.8,1
			c0.5,0.5,0.8,1.2,0.9,1.8c0.3,1.3,0.5,2.7,0.5,4.1c0,1.4-0.2,2.7-0.7,4c-0.5,1.3-1.4,2.4-2.4,3.3c-1.1,0.9-2.3,1.5-3.6,2
			c-2.5,1-5.3,1.4-7.9,1.8c-2.7,0.3-5.4,0.4-8.1,0.5c-5.4,0.1-10.9,0-16.3,0c-2.7,0-5.4,0-8.1,0c-2.7,0.1-5.4,0.2-8.1,0.7
			c-2.7,0.5-5.3,1.4-7.5,2.9c-2.3,1.5-4.2,3.5-5.8,5.6c-1.6,2.1-3.2,4.4-4.5,6.8c-0.5,1.2-1.1,2.5-1.9,3.6c-0.8,1.1-1.8,2-3.1,2.6
			c1.2-0.6,2.3-1.5,3-2.6c0.8-1.1,1.4-2.3,1.9-3.6c1.2-2.4,2.8-4.6,4.5-6.8c1.7-2.1,3.6-4.1,5.8-5.6c2.3-1.5,4.9-2.4,7.6-2.9
			c2.7-0.5,5.4-0.6,8.1-0.7c2.7-0.1,5.4-0.1,8.1-0.1c5.4,0,10.9,0.1,16.3,0c2.7-0.1,5.4-0.2,8.1-0.5c2.7-0.3,5.4-0.8,7.9-1.8
			c1.3-0.5,2.5-1.1,3.5-2c1-0.9,1.9-2,2.4-3.2c0.5-1.2,0.7-2.6,0.7-4c0-1.4-0.2-2.7-0.5-4c-0.1-0.7-0.4-1.3-0.8-1.8
			c-0.5-0.5-1.1-0.8-1.7-1c-1.3-0.4-2.6-0.5-4-0.6c-2.7-0.1-5.4,0-8.1,0.2c-2.7,0.2-5.4,0.2-8.1,0.2c-2.7,0-5.4,0-8.1,0
			c-5.4-0.1-10.9-0.3-16.3-1.2c-5.4-0.9-10.7-2.3-15.4-5.2c-2.3-1.4-4.4-3.2-6.1-5.4c-1.7-2.1-3-4.6-3.9-7.2c-0.9-2.6-1.3-5.3-1.4-8
			c-0.1-1.4-0.1-2.7-0.1-4.1l0-4.1l0-8.1c0-1.3-0.1-2.7,0.1-4.1c0.2-1.4,0.5-2.7,1-4c1.8-5.2,5.1-9.6,8.1-14.1l1.1-1.7
			c0.4-0.6,0.7-1.2,1.2-1.7c0.9-1,2.1-1.8,3.4-2.4c2.5-1.1,5.2-1.6,8-1.9c5.4-0.6,10.9-0.2,16.3-0.6l0,0l0,0
			c1.5,0.2,2.8,0.7,4.2,0.9c0.7,0.1,1.4,0.1,2.1,0.1l2.1,0.1c2.8,0.1,5.6-0.4,8.5-0.5c5.7-0.4,11.4-0.5,17-0.5
			c11.4,0,22.7,0.4,34.1-0.2l0.7,0l-0.5,0.5c-3.2,3-5.6,6.6-8,10.3c-1.2,1.9-2.4,3.7-3.7,5.5c-1.3,1.8-2.9,3.4-4.6,4.8
			c-0.9,0.6-1.8,1.3-2.8,1.7c-0.5,0.2-1,0.5-1.5,0.7l-1.6,0.5c-0.5,0.2-1.1,0.3-1.6,0.4l-1.6,0.3c-1.1,0.1-2.2,0.2-3.3,0.2
			l-13.1,0.2c-4.4,0.1-8.8,0.1-13.1,0c-2.2,0-4.4-0.1-6.6-0.3c-2.2-0.1-4.4-0.5-6.5-0.4c-2.2,0.1-4.3,0.6-6.1,1.8
			c-1.8,1.2-3.1,3.1-3.8,5.1c-0.8,2-1.1,4.2-1.2,6.4c-0.1,2.2-0.1,4.4,0.2,6.5c0.3,2.1,1.2,4.2,2.8,5.6c1.6,1.4,3.8,2.1,5.9,2.3
			c4.3,0.5,8.7,0.6,13.1,0.4c8.7-0.3,17.5-1.2,26.3-0.6c1.1,0.1,2.2,0.2,3.3,0.3c1.1,0.2,2.2,0.3,3.2,0.5c2.2,0.4,4.3,1,6.3,1.8
			c2.1,0.8,4,1.9,5.6,3.4c1.7,1.4,3.3,2.9,4.7,4.6c1.4,1.7,2.5,3.7,2.9,5.9c0.4,2.2,0.4,4.4,0.3,6.6c-0.2,4.4-0.6,8.7-0.6,13.1v0
			l0,0c-0.3,2.9-0.8,5.7-1,8.6c-0.2,2.9-0.6,5.8-1.8,8.4c-1.2,2.6-3,5-5.3,6.8c-2.3,1.8-4.9,3-7.7,3.9c-5.5,1.8-11.3,2.2-17.1,2.4
			c-5.8,0.2-11.5-0.1-17.3-0.1l0,0c-5-0.5-10-0.7-15-0.7c-5,0-10,0.2-15,0.7l0,0l-12,0c-2,0-4,0.1-6,0.1
			C537.9,274.7,535.9,274.7,533.9,274.5z"/>
	</g>
	<g>
		<path class="st56" d="M178.9,215.7c1.1-3.1,6.7-3,8.2-6.8c1.5-3.8,3.4-7.9,3.8-12.2c1.8-19.9-3.7-38.2-26-39c-7.5-0.3-15.5,0-23,0
			s-13.9-0.1-21-1c-7.1-0.9-16,0.7-23,0s-15.1,0-18,2c10.2,4.2,9,19.2,9,28c-1.2,8,3.4,19.9-5,24c4,2.8,6,7.5,11,9
			c-9.8,1.8-6,18.3-6,27c0,0.1,0,0.3,0.1,0.5c0-0.2-0.1-0.3-0.1-0.5c0.5,10.2,1,20.8-7,28c19.9-1.7,40.7-1,61-1c4,0,8,0,12,0
			c12,0,23.1,1.1,31-9c0.8-1,1.4-1.8,2-3c3.8-7.5,3-15.5,3-24C190.9,230.1,187.5,214.9,178.9,215.7z M114.1,180.9
			c8.5-0.1,19.7,0.4,27.7,0.3c9.3-0.1,21.4-2.3,22.1,8.6c0.3,17.1-4.5,19.2-26,19.2h-23C114.6,201.5,115.7,188,114.1,180.9z
			 M92.9,247.6c0-0.1,0-0.2-0.1-0.3C92.8,247.4,92.8,247.5,92.9,247.6z M92.8,247.3c-0.1-0.1-0.1-0.2-0.2-0.3
			C92.6,247,92.7,247.2,92.8,247.3z M92.5,246.9c-0.1-0.1-0.2-0.2-0.3-0.3C92.3,246.7,92.4,246.8,92.5,246.9z M91.5,246.1
			c-0.2-0.1-0.4-0.2-0.7-0.4C91.1,245.9,91.3,246,91.5,246.1z M92.1,246.5c-0.1-0.1-0.3-0.2-0.5-0.3C91.8,246.3,92,246.4,92.1,246.5
			z M89,247.3c0,0.2,0.1,0.3,0.1,0.5C89.1,247.7,89,247.5,89,247.3z M89.3,248.3c0-0.1-0.1-0.2-0.1-0.3
			C89.2,248.1,89.2,248.2,89.3,248.3z M92.9,248c0-0.1,0-0.2,0-0.3C92.9,247.8,92.9,247.9,92.9,248z M92.1,249.4
			c0.1-0.1,0.1-0.2,0.2-0.2C92.2,249.2,92.1,249.3,92.1,249.4z M92.4,249c0.1-0.1,0.1-0.2,0.2-0.3C92.5,248.8,92.4,248.9,92.4,249z
			 M92.6,248.7c0.1-0.1,0.1-0.2,0.1-0.3C92.7,248.5,92.6,248.6,92.6,248.7z M92.8,248.3c0-0.1,0.1-0.2,0.1-0.3
			C92.8,248.1,92.8,248.2,92.8,248.3z M116.9,248.7c-0.8-0.2-1.3-0.9-2-1c-2.5-5.5,1.9-14.2,0-20c2,0.3,3.8,1.5,6,1
			c11.2-0.6,24.1-2.3,36-1s10.6,19.4-1,21c-6.4,0.9-13.5,0-20,0c-1.7,0-3.3,0-5,0c-2,0-4,0-6,0C122.4,248.7,119.3,249.3,116.9,248.7
			z"/>
		<g>
			<path class="st54" d="M178.9,215.7c0.3-0.8,0.9-1.4,1.6-1.9c0.7-0.5,1.5-0.8,2.3-1.2c1.5-0.7,3.1-1.5,4-3
				c1.4-3.1,2.7-6.3,3.5-9.5c0.2-0.8,0.4-1.7,0.5-2.5c0.1-0.8,0.2-1.7,0.2-2.5c0.1-1.7,0.2-3.4,0.2-5.1c0-3.4-0.3-6.8-0.9-10.1
				c-0.6-3.3-1.7-6.6-3.3-9.6c-1.6-3-3.8-5.7-6.6-7.6c-2.7-2-5.9-3.3-9.2-4c-3.3-0.8-6.7-0.8-10.1-0.9c-6.8-0.1-13.6,0.1-20.4,0.1
				c-6.8,0-13.6-0.2-20.4-1c-6.8-0.6-13.5,0.5-20.4,0.2c-1.7-0.1-3.4-0.3-5.1-0.3c-1.7-0.1-3.4-0.1-5.1,0c-1.7,0.1-3.4,0.3-5,0.6
				c-1.6,0.3-3.3,0.7-4.7,1.6l0-0.3c2.5,1,4.5,2.8,5.9,5.1c1.4,2.3,2.1,4.8,2.6,7.4c0.9,5.2,0.7,10.4,0.7,15.6l0,0l0,0
				c-0.3,2.1-0.2,4.3-0.1,6.4c0.1,2.2,0.3,4.3,0.3,6.5c0,2.2-0.2,4.4-0.9,6.5c-0.2,0.5-0.5,1-0.7,1.5c-0.3,0.5-0.7,0.9-1,1.3
				c-0.4,0.4-0.8,0.7-1.2,1.1L84,211l0-0.4c2,1.4,3.5,3.3,5.2,5c0.8,0.9,1.7,1.7,2.6,2.4c1,0.7,2,1.2,3.1,1.6l1,0.3l-1,0.2
				c-1.2,0.2-2.3,0.7-3.2,1.5c-0.9,0.8-1.6,1.8-2,3c-0.9,2.3-1.2,4.8-1.2,7.3c-0.1,2.5,0.1,5,0.3,7.5c0.2,2.5,0.4,5,0.4,7.5l0,0
				l0.1,0.4l-0.4,0.1l-0.1-0.5l0.4,0c0.2,5,0.5,10-0.3,15c-0.4,2.5-1.1,4.9-2.2,7.2c-1.1,2.3-2.7,4.3-4.6,6l-0.1-0.3
				c13.5-1.1,27-1.2,40.6-1.1l20.3,0.1l20.3,0c3.4,0,6.8-0.2,10.1-1c3.3-0.7,6.4-2.1,9.1-4.3c1.3-1,2.5-2.3,3.6-3.6
				c1.1-1.3,2-2.7,2.7-4.3c1.4-3.1,2.1-6.4,2.3-9.8c0.3-3.4,0.2-6.8,0.2-10.1c0-1.7,0-3.4-0.1-5.1c-0.1-1.7-0.3-3.4-0.7-5
				c-0.6-3.3-1.6-6.6-3.3-9.6c-0.8-1.5-1.9-2.8-3.2-3.9C182.3,216.1,180.6,215.6,178.9,215.7z M178.9,215.7c1.7-0.2,3.4,0.3,4.8,1.4
				c1.4,1,2.4,2.4,3.2,3.9c1.7,3,2.6,6.2,3.3,9.6c0.3,1.7,0.6,3.3,0.7,5c0.1,1.7,0.1,3.4,0.1,5.1c0,3.4,0.1,6.8-0.2,10.1
				c-0.3,3.4-1,6.7-2.3,9.8c-0.6,1.6-1.6,3-2.7,4.3c-1.1,1.3-2.2,2.6-3.6,3.6c-2.6,2.1-5.8,3.6-9.1,4.3c-3.3,0.8-6.7,1-10.1,1
				l-20.3,0l-20.3-0.1c-13.5-0.1-27.1,0-40.5,1.2l-0.5,0l0.4-0.4c1.8-1.7,3.4-3.7,4.5-5.9c1.1-2.2,1.8-4.6,2.2-7.1
				c0.8-4.9,0.5-9.9,0.3-14.9l0.4,0l0.1,0.4l-0.4,0.1l-0.1-0.5l0,0l0,0c0-2.5-0.3-5-0.4-7.5c-0.2-2.5-0.3-5-0.3-7.5
				c0.1-2.5,0.3-5.1,1.2-7.5c0.5-1.2,1.2-2.3,2.2-3.2c1-0.9,2.2-1.4,3.5-1.6l0,0.5c-1.2-0.3-2.3-0.9-3.3-1.6c-1-0.7-1.9-1.6-2.7-2.4
				c-1.7-1.7-3.2-3.6-5.1-5l-0.3-0.2l0.3-0.2l1.4-0.8c0.4-0.3,0.8-0.7,1.2-1c0.3-0.4,0.7-0.8,0.9-1.3c0.2-0.5,0.5-0.9,0.7-1.4
				c0.8-2,0.9-4.2,0.9-6.3c0-2.2-0.2-4.3-0.3-6.5c-0.1-2.2-0.2-4.3,0.1-6.5l0,0c0-5.2,0.3-10.4-0.6-15.6c-0.5-2.5-1.2-5.1-2.5-7.3
				c-1.3-2.2-3.3-4-5.7-5l-0.3-0.1l0.3-0.2c1.5-1,3.2-1.3,4.9-1.7c1.7-0.3,3.4-0.5,5.1-0.5c1.7-0.1,3.4-0.1,5.1,0
				c1.7,0.1,3.4,0.3,5.1,0.3c6.8,0.3,13.6-0.8,20.4-0.2c6.7,0.8,13.5,1.1,20.3,1.1c6.8,0,13.6-0.2,20.4-0.1
				c3.4,0.1,6.8,0.1,10.1,0.9c3.3,0.7,6.5,2.1,9.3,4.1c2.8,2,5,4.7,6.6,7.7c1.6,3,2.7,6.3,3.3,9.6c0.7,3.3,0.9,6.7,0.9,10.1
				c0,1.7-0.1,3.4-0.2,5.1c-0.1,0.8-0.1,1.7-0.2,2.5c-0.1,0.8-0.3,1.7-0.5,2.5c-0.8,3.3-2.1,6.4-3.5,9.5c-0.9,1.5-2.5,2.3-4,3
				c-0.8,0.4-1.5,0.7-2.3,1.2C179.8,214.3,179.1,214.9,178.9,215.7z"/>
			<path class="st54" d="M114.1,180.9c9.7-0.1,19.5,0.3,29.2,0.1c2.4-0.1,4.9-0.2,7.3-0.2c2.4,0,4.9,0.1,7.3,0.8
				c1.2,0.4,2.3,0.9,3.3,1.7c1,0.8,1.7,1.8,2.2,3c0.5,1.2,0.7,2.4,0.8,3.6c0,1.2,0,2.4,0,3.7c-0.1,2.4-0.3,4.9-1.1,7.2
				c-0.4,1.2-1,2.3-1.7,3.3c-0.8,1-1.7,1.8-2.8,2.4c-2.2,1.2-4.6,1.7-7,2.1c-2.4,0.3-4.9,0.5-7.3,0.5c-4.9,0.1-9.7,0-14.6,0.1
				l-14.6,0l-0.1,0l0-0.1c-0.1-2.3,0-4.7,0-7l0.1-7c0-2.3,0-4.7-0.1-7C114.7,185.5,114.6,183.2,114.1,180.9z M114.1,180.9
				c0.5,2.3,0.7,4.6,0.8,7c0.1,2.3,0.1,4.7,0.1,7c0,4.7-0.2,9.4,0,14l-0.1-0.1l14.6,0c4.9,0,9.7,0,14.6-0.1c2.4-0.1,4.9-0.2,7.2-0.6
				c2.4-0.4,4.8-0.9,6.9-2c2.1-1.1,3.6-3.1,4.4-5.4c0.8-2.3,1-4.7,1.1-7.1c0.1-1.2,0.1-2.4,0-3.6c-0.1-1.2-0.3-2.4-0.7-3.5
				c-0.5-1.1-1.2-2.1-2.1-2.8c-0.9-0.8-2-1.3-3.2-1.6c-2.3-0.7-4.7-0.8-7.2-0.8c-2.4,0-4.9,0.1-7.3,0.2
				C133.5,181.5,123.8,180.9,114.1,180.9z"/>
			<path class="st54" d="M92.9,247.6c0-0.1-0.3-0.1-0.3-0.2l0.5-0.2C93,247.3,92.8,247.5,92.9,247.6z M92.9,247.6
				c0-0.1-0.3-0.1-0.3-0.2l0-1.4l0.5,1.1C93,247.3,92.8,247.5,92.9,247.6z"/>
			<path class="st54" d="M92.8,247.3c0-0.1,0,0-0.1,0c-0.1,0-0.2,0-0.3-0.1l0.4-0.3c0.1,0.1,0.1,0.2,0,0.3
				C92.7,247.2,92.7,247.2,92.8,247.3z M92.8,247.3c0,0-0.1-0.2-0.2-0.2c-0.1,0-0.2,0.1-0.2,0l-0.1-0.8l0.4,0.5c0,0-0.1,0.1-0.1,0.2
				C92.7,247.1,92.7,247.2,92.8,247.3z"/>
			<path class="st54" d="M92.5,246.9c-0.1-0.1-0.1-0.1-0.2,0c-0.1,0-0.2,0-0.3-0.1l0.3-0.4c0.1,0.1,0.1,0.2,0.1,0.4
				C92.5,246.8,92.4,246.8,92.5,246.9z M92.5,246.9c0-0.1-0.2-0.2-0.3-0.2c-0.1,0-0.2,0.1-0.2,0l-0.5-1l0.8,0.6c0,0,0,0.1,0,0.2
				C92.4,246.7,92.5,246.8,92.5,246.9z"/>
			<path class="st54" d="M91.5,246.1c-0.2-0.1-0.6,0-0.8-0.1l0.2-0.4C91.2,245.6,91.3,246,91.5,246.1z M91.5,246.1
				c-0.2-0.1-0.6,0-0.8-0.1l0.2-0.4C91.2,245.6,91.3,246,91.5,246.1z"/>
			<path class="st54" d="M92.1,246.5c-0.2-0.1-0.5,0-0.6-0.1l0.3-0.4C91.9,246.1,91.9,246.4,92.1,246.5z M92.1,246.5
				c-0.2-0.1-0.5,0-0.6-0.1l0.3-0.4C91.9,246.1,91.9,246.4,92.1,246.5z"/>
			<path class="st54" d="M89,247.3c0,0.1,0.1,0.2,0.2,0.3c0.1,0.1,0.2,0.1,0.2,0.1l0.1,1.3l-0.5-1.1c0,0,0.1-0.1,0.1-0.2
				C89,247.6,89,247.4,89,247.3z M89,247.3c0,0.1,0,0.1,0.1,0.1c0.1,0,0.2,0.2,0.2,0.3l-0.5,0.1c0-0.1,0-0.3,0.1-0.4
				C89,247.4,89,247.4,89,247.3z"/>
			<path class="st54" d="M89.3,248.3c0-0.1,0,0-0.1,0c-0.1,0-0.2-0.1-0.2-0.2l0.5-0.1C89.5,248.1,89.4,248.2,89.3,248.3
				C89.3,248.3,89.2,248.3,89.3,248.3z M89.3,248.3c0,0-0.1-0.2-0.2-0.2c-0.1,0-0.2,0-0.2,0l0.2-0.3l0.3,0.1c0,0-0.1,0-0.1,0.1
				C89.2,248.2,89.3,248.3,89.3,248.3z"/>
			<path class="st54" d="M92.9,248c0-0.1-0.3-0.2-0.2-0.3l0.5-0.1C93.1,247.8,92.8,247.9,92.9,248z M92.9,248c0-0.1-0.3-0.2-0.2-0.3
				l0.4-1.2l0.1,1.2C93.1,247.8,92.8,247.9,92.9,248z"/>
			<path class="st54" d="M92.1,249.4c0,0,0,0,0-0.1c0-0.1,0-0.2,0-0.3l0.4,0.3c0,0.1-0.2,0.1-0.3,0.1
				C92.1,249.4,92.1,249.3,92.1,249.4z M92.1,249.4c0,0,0.1-0.1,0.1-0.2c0-0.1-0.1-0.1-0.1-0.1l0.4,0l0,0.3c0,0-0.1-0.1-0.2,0
				C92.2,249.3,92.1,249.3,92.1,249.4z"/>
			<path class="st54" d="M92.4,249c0-0.1,0,0,0-0.1c0-0.1-0.1-0.2,0-0.3l0.4,0.3c0,0.1-0.2,0.1-0.3,0.1C92.4,249,92.4,249,92.4,249z
				 M92.4,249c0,0,0.1-0.2,0.1-0.3c0-0.1-0.1-0.1-0.1-0.2l0.5-0.2l-0.1,0.5c0,0-0.1,0-0.2,0C92.5,248.9,92.4,249,92.4,249z"/>
			<path class="st54" d="M92.6,248.7C92.6,248.6,92.6,248.6,92.6,248.7c-0.1-0.2-0.1-0.3-0.1-0.4l0.5,0.2c0,0.1-0.2,0.2-0.3,0.2
				C92.6,248.6,92.6,248.6,92.6,248.7z M92.6,248.7c0,0,0.1-0.2,0-0.3c0-0.1-0.1-0.1-0.1-0.1l0.4-0.1l0.1,0.3c0,0-0.1,0-0.2,0
				C92.7,248.5,92.6,248.6,92.6,248.7z"/>
			<path class="st54" d="M92.8,248.3C92.8,248.3,92.8,248.3,92.8,248.3c-0.1-0.1-0.2-0.3-0.2-0.3l0.5,0.1c0,0.1-0.1,0.2-0.2,0.2
				C92.8,248.3,92.8,248.3,92.8,248.3z M92.8,248.3c0,0,0.1-0.2,0-0.3c-0.1-0.1-0.2-0.1-0.1-0.1l0.4-0.2l0,0.3c0,0-0.1,0-0.2,0
				C92.8,248.2,92.8,248.3,92.8,248.3z"/>
			<path class="st54" d="M116.9,248.7c-0.8-0.1-1.2-0.9-2-1l0,0l0,0c-0.7-1.5-0.9-3.3-0.8-5c0.1-1.7,0.3-3.4,0.5-5
				c0.3-1.7,0.5-3.3,0.6-5c0.1-1.7,0.1-3.4-0.4-5l0-0.1l0.1,0c1,0.1,2,0.5,3,0.8c1,0.3,2,0.4,3,0.2l0,0l0,0
				c8.8-0.5,17.5-1.6,26.3-1.6c2.2,0,4.4,0,6.6,0.2c1.1,0.1,2.2,0.2,3.3,0.3c1.1,0.1,2.2,0.4,3.2,0.9c2.1,1,3.6,2.8,4.4,4.9
				c0.8,2.1,0.9,4.4,0.5,6.6c-0.5,2.2-1.5,4.2-3,5.9c-1.6,1.6-3.6,2.7-5.8,3c-4.4,0.7-8.8,0.5-13.2,0.3
				C134.4,248.5,125.6,249,116.9,248.7z M116.9,248.7c8.7,0.2,17.5-0.3,26.3,0.1c4.4,0.2,8.8,0.3,13.1-0.4c2.1-0.4,4.1-1.4,5.6-3
				c1.5-1.6,2.5-3.6,2.9-5.7c0.4-2.1,0.3-4.4-0.5-6.3c-0.8-2-2.3-3.7-4.2-4.6c-1.9-1-4.2-1-6.3-1.2c-2.2-0.2-4.4-0.2-6.6-0.2
				c-8.8,0-17.5,0.9-26.3,1.4l0,0c-1,0.2-2.1,0.1-3.1-0.2c-1-0.3-1.9-0.7-3-0.8l0.1-0.1c0.5,1.6,0.5,3.4,0.4,5
				c-0.1,1.7-0.4,3.4-0.7,5c-0.3,1.7-0.5,3.3-0.6,5c-0.1,1.7,0.1,3.4,0.8,4.9l0,0C115.6,247.8,116.1,248.6,116.9,248.7z"/>
		</g>
	</g>
</g>
<g id="Layer_2_copy">
	<linearGradient id="SVGID_40_" gradientUnits="userSpaceOnUse" x1="253.871" y1="157.4216" x2="253.871" y2="274.9359">
		<stop  offset="0" style="stop-color:#BCBCD1"/>
		<stop  offset="1" style="stop-color:#50505C"/>
	</linearGradient>
	<path class="st57" d="M251.8,198.4c-3.6-6.1-4.2-7.4-7.7-14.2c-1.9-3.7-2.4-6.2-4.2-9.8c-1.7,3.1-2.5,4.1-4.4,7.6
		c-2.1,3.9-7.8,16.7-12.8,27.7c-2.6,5.6-8.2,18-19,44.9c-1.2,3.1-2.5,6-4,9c-1.3,4.5-10,7.3-12.7,11c10.9-2,22.7-0.5,34-1
		c3.9-12.7,12.9-30.6,17.4-43.1c6.7,2.1,2.5,10.5,3.3,16.2c10.4,0.9,21.2-0.5,32.8-0.1c3.7,10.4,9.5,28.2,14.1,28.2
		c4.4,0,15.7-0.5,19.4-0.2c4.3,0,8.7,0,13,0c-3-1.6-4.2-5.4-6-8c-10.6-15.8-16.2-34.9-25-52c-3.4-6.6-6.8-12.9-11-19
		c-1.1-1.5-2-3.4-3-5c-3.9-6.5-6.9-12.3-11.4-18.4s-14.1-17.5-15.2-14.5c-1.1,2-3.2,6.5-5.1,9.2c-2.3,3.2-3.3,5.6-3.3,5.6
		s2.1,5.6,3,7c4.8,8.2,5.4,9.8,9.4,17.7c4.9,9.7,15.4,31.5,14.4,31.5c-7.4,0-15.9,0.4-19.9,0.4c-4.5-0.1-8.6,0.4-9,0
		c0,0,2.6-8.5,6.5-17.3C247.3,207.4,249.6,203,251.8,198.4z"/>
	<linearGradient id="SVGID_41_" gradientUnits="userSpaceOnUse" x1="366.6127" y1="157.3334" x2="366.6127" y2="274.9359">
		<stop  offset="0" style="stop-color:#BCBCD1"/>
		<stop  offset="1" style="stop-color:#50505C"/>
	</linearGradient>
	<path class="st58" d="M314.9,197.7c0.1,10.1-0.4,28.9-0.4,29.5c0,13.8,0.6,22.1,5.4,32.5c8.3,14.5,25.3,15.8,41,15s36.4,3,50-6
		c2.8-2.7,2.8-16.9,2-22c-3.7,0.2-10.7,0.2-19,1c-5.7,0.2-21.7-0.3-33,0c-12.3,0.3-20.4-4.3-20-15s-0.1-22.2-0.6-31.1
		c-0.5-8.9-0.7-20,3.4-21.2c11.1-0.2,24.1-0.1,34.2,0.2c8.5,0.3,22.7-0.6,31.4,1c2-4.7,3.6-9.1,5.4-13.5s2.2-6.2,4.2-10.5
		c0.3,0.7-2.5,0.9-2,1c-7.7-2-16.8-1.4-25-1s-17.3-0.2-25,0s-19,0.6-26.6,0.6c-12.2-0.5-20.3-1.9-22.7,0.1
		c-2.6,2.1-3.6,7.5-3.1,16.3C314.7,184.5,314.3,191.4,314.9,197.7z"/>
	<linearGradient id="SVGID_42_" gradientUnits="userSpaceOnUse" x1="480.9677" y1="156.3366" x2="480.9677" y2="274.9206">
		<stop  offset="0" style="stop-color:#BCBCD1"/>
		<stop  offset="1" style="stop-color:#50505C"/>
	</linearGradient>
	<path class="st59" d="M502.2,228.4c0.5-0.2,1-0.4,1.4-0.8c1.9-1.9,0.5-6.3,2.4-10.5c1.3-2.8,2.5-5.9,3.6-8.5c0.5-1.3,3-4.4,3.1-4.8
		c-3.3-1.8-7.2-1.9-11.2,0.2c-3.5,2.6-6.6,5-11.3,4.9s-13.6,0.1-18.5,0.1c-4.6,0-13.5-0.3-18.6-0.3c-1.9,0,2.1-21.9,3-27.6
		c9.3-0.1,32.9-0.1,41-0.3c4.5-0.1,10.9,0.1,13.7,0.1c1.5,0,5.3,0.5,6.7,0.1c11.3-13.8,9.8-11.6,21.8-24.6
		c-14.2,2.2-24,1.4-32.1,1.6c-27,0.5-33.2-1.1-41.9,0.1c-9.3,0.9-18.1,0-22.1-0.1c-4-0.2-10.4-0.8-13.7,0.4
		c-3.4,1.2-4.7,9.5-5.4,11.2c-4.9,12,5,10.2,5.1,11.7c0.2,3.4-1.1,14.1-1.6,20.3c-0.3,2.8-2.2,5.7-3.1,7c0.4,6,6.2,8.3,10.9,11.4
		c-2.6,2.6-8.7,1.8-8.9,6.6c-1.2,7.2,2,16.1,2.1,23.4c0,10.2-1.6,17.5-6.2,25c2-1.4,4.6-1,7-1c2.2,0,4.5,0.8,6,1c3,0.1,6,0,9,0
		c7.3-0.7,16-1,24-1c4.3,0,8.7,0,13,0c17.1,0,21.9-0.4,32,0c4.8,0.2,8.7,0.4,11.1,0.6c0.9-0.9,1.9-1.8,2.8-2.7
		c-0.5-1.1-1.2-2.3-1.8-3.5c-0.7-1.2-1.4-2.4-2.1-3.4c-1.2-6-1.2-12.1,0-18c-4.6,0.5-9.5,1.6-14,2c-5.4,0.5-12.8,0.2-18,0
		s-13.1,0.2-18.6,0.3c-5.3,0.1-15.7,0.9-16.4-1.3c-1.6-5.4-3.6-12.2-2-18c8.7,0,17.3,0,26,0C483.5,229.9,497.5,229.9,502.2,228.4z"
		/>
	<linearGradient id="SVGID_43_" gradientUnits="userSpaceOnUse" x1="587.613" y1="156.5484" x2="587.613" y2="274.7088">
		<stop  offset="0" style="stop-color:#BCBCD1"/>
		<stop  offset="1" style="stop-color:#50505C"/>
	</linearGradient>
	<path class="st60" d="M533.9,274.5c2.7,0.1,6,0.2,10,0l0,0c4.7,0,9.3,0,14,0c9.4-0.9,20.6-0.9,30,0c18.2,0,47.7,3.4,49-21
		c0.2-3,0.8-6.7,1-9c0-7.8,1.1-13.3,0.4-18.8c-0.7-5.3-4.3-8.4-8.6-11.9c-2.5-2.1-5.9-3.2-9-4c-14.3-3.5-31,0.5-46.2-0.9
		c-3.8-0.3-10.1-1-10.7-9.3c-1-13.1,3.2-20,14.1-19s25.6,0.4,36.5,0.3c17.6-0.2,18.3-15,28.5-24.4c-19.1,0.9-37.4-0.7-56,1
		c-2.3,0.2-4.7,0.1-7,0c-1.6-0.1-4.1-1-5-1c-7.9,0.7-23.8-1.3-28.2,5.8c-4.4,7-11.1,14.7-10.8,23.2c0,0.5,0,1.5,0,2
		c0,4.7-0.1,9.3,0,14c0.6,30,32.7,28.4,54.4,28.4c7.9,0,18.5-1.8,19.6,2.6c4.4,18-15.5,16-42,16c-16.3,0-21.5,1.3-30,15
		c-0.8,1.4-1.9,5.5-5.5,7.3"/>
	<linearGradient id="SVGID_44_" gradientUnits="userSpaceOnUse" x1="135.5224" y1="156.4707" x2="135.5224" y2="274.7419">
		<stop  offset="0" style="stop-color:#BCBCD1"/>
		<stop  offset="1" style="stop-color:#50505C"/>
	</linearGradient>
	<path class="st61" d="M178.9,215.7c1.1-3.1,6.7-3,8.2-6.8c1.5-3.8,3.4-7.9,3.8-12.2c1.8-19.9-3.7-38.2-26-39c-7.5-0.3-15.5,0-23,0
		s-13.9-0.1-21-1c-7.1-0.9-16,0.7-23,0s-15.1,0-18,2c10.2,4.2,9,19.2,9,28c-1.2,8,3.4,19.9-5,24c4,2.8,6,7.5,11,9
		c-9.8,1.8-6,18.3-6,27c0,0.1,0,0.3,0.1,0.5c0-0.2-0.1-0.3-0.1-0.5c0.5,10.2,1,20.8-7,28c19.9-1.7,40.7-1,61-1c4,0,8,0,12,0
		c12,0,23.1,1.1,31-9c0.8-1,1.4-1.8,2-3c3.8-7.5,3-15.5,3-24C190.9,230.1,187.5,214.9,178.9,215.7z M114.1,180.9
		c8.5-0.1,19.7,0.4,27.7,0.3c9.3-0.1,21.4-2.3,22.1,8.6c0.3,17.1-4.5,19.2-26,19.2h-23C114.6,201.5,115.7,188,114.1,180.9z
		 M92.9,247.6c0-0.1,0-0.2-0.1-0.3C92.8,247.4,92.8,247.5,92.9,247.6z M92.8,247.3c-0.1-0.1-0.1-0.2-0.2-0.3
		C92.6,247,92.7,247.2,92.8,247.3z M92.5,246.9c-0.1-0.1-0.2-0.2-0.3-0.3C92.3,246.7,92.4,246.8,92.5,246.9z M91.5,246.1
		c-0.2-0.1-0.4-0.2-0.7-0.4C91.1,245.9,91.3,246,91.5,246.1z M92.1,246.5c-0.1-0.1-0.3-0.2-0.5-0.3C91.8,246.3,92,246.4,92.1,246.5z
		 M89,247.3c0,0.2,0.1,0.3,0.1,0.5C89.1,247.7,89,247.5,89,247.3z M89.3,248.3c0-0.1-0.1-0.2-0.1-0.3
		C89.2,248.1,89.2,248.2,89.3,248.3z M92.9,248c0-0.1,0-0.2,0-0.3C92.9,247.8,92.9,247.9,92.9,248z M92.1,249.4
		c0.1-0.1,0.1-0.2,0.2-0.2C92.2,249.2,92.1,249.3,92.1,249.4z M92.4,249c0.1-0.1,0.1-0.2,0.2-0.3C92.5,248.8,92.4,248.9,92.4,249z
		 M92.6,248.7c0.1-0.1,0.1-0.2,0.1-0.3C92.7,248.5,92.6,248.6,92.6,248.7z M92.8,248.3c0-0.1,0.1-0.2,0.1-0.3
		C92.8,248.1,92.8,248.2,92.8,248.3z M116.9,248.7c-0.8-0.2-1.3-0.9-2-1c-2.5-5.5,1.9-14.2,0-20c2,0.3,3.8,1.5,6,1
		c11.2-0.6,24.1-2.3,36-1s10.6,19.4-1,21c-6.4,0.9-13.5,0-20,0c-1.7,0-3.3,0-5,0c-2,0-4,0-6,0C122.4,248.7,119.3,249.3,116.9,248.7z
		"/>
</g>
<g id="Layer_15" class="st0">
	<g id="Layer_7" class="st1">
		<line class="st62" x1="10.8" y1="157.9" x2="729.8" y2="157.9"/>
	</g>
	<g id="Layer_7_copy_2" class="st1">
		<line class="st62" x1="10.8" y1="180.9" x2="729.8" y2="180.9"/>
	</g>
	<g id="Layer_7_copy_3" class="st1">
		<line class="st62" x1="10.8" y1="208.9" x2="729.8" y2="208.9"/>
	</g>
	<g id="Layer_7_copy_4" class="st1">
		<line class="st62" x1="10.8" y1="229.9" x2="729.8" y2="229.9"/>
	</g>
	<g id="Layer_7_copy" class="st1">
		<line class="st62" x1="10.8" y1="274.9" x2="729.8" y2="274.9"/>
	</g>
</g>
<g id="Layer_5" class="st0">
	
		<image style="display:inline;overflow:visible;" width="521" height="413" xlink:href="843AD0E9.jpg"  transform="matrix(1 0 0 1 119.0484 -54.9516)">
	</image>
</g>
</svg>
